<svg width="308" height="308" viewBox="0 0 308 308" fill="none" xmlns="http://www.w3.org/2000/svg">
<mask id="mask0_9_2290" style="mask-type:alpha" maskUnits="userSpaceOnUse" x="0" y="0" width="308" height="308">
<circle cx="153.993" cy="153.993" r="153.993" transform="matrix(-1 0 0 1 308 0)" fill="#D9D9D9"/>
</mask>
<g mask="url(#mask0_9_2290)">
<path d="M57.2004 296.6C59.1004 281.8 67.5004 256.9 72.6004 250.2C78.2004 242.9 80.5004 240.6 99.2004 234.3C100.2 229.3 103.9 216.7 108.3 211.4C115 201.3 133.3 199 138.8 200.2C138.8 200.2 168.4 189.8 202.5 189.8C213.3 192.2 225.8 197.1 232.6 207.4C237.2 214.2 232 216.4 234.3 222.6C234.9 224.2 248.9 232.2 254.6 237C257.2 239.1 260.1 244.4 262.1 251.3C266.1 265.4 261.8 284.9 266.8 301.9C276.4 334.7 295.9 344.5 295.9 344.5H37.5004C37.7004 344.4 53.1004 327.8 57.2004 296.6Z" fill="white"/>
<path d="M58.7 296.8C60.7 283.7 64.7 270.7 69.8 258.5C72.3 252.6 76.1 246.9 81.4 243.4C84.1 241.7 87.1 240.4 90.2 239.1C93.3 237.9 96.5 236.8 99.6 235.7C100.1 235.5 100.5 235.1 100.6 234.6C101 232.6 101.5 230.7 102.1 228.7C104.7 220.6 107.5 211.6 115.1 206.9C120.9 203.4 127.8 201.7 134.5 201.4C135.8 201.4 137.2 201.4 138.4 201.6H138.8C138.9 201.6 139.1 201.6 139.2 201.5C144 199.2 149.3 197.8 154.5 196.4C170.1 192.8 186.4 191.3 202.4 191.2C212.2 193.5 225.9 198.9 231.9 208.9C232.9 210.5 233.4 212.1 233.2 213.9C233 215.9 232.3 218.1 232.8 220.2C233 221.1 233.2 222.1 233.6 222.9C234.4 224 235.7 224.7 236.7 225.4C241.9 228.8 247.2 231.8 252.2 235.3C253.9 236.5 255.5 237.6 256.7 239.3C260.2 244.3 262.3 250.3 263.2 256.3C264.8 268.5 263.2 280.9 264.8 293.1C266.6 305.3 271.3 317.1 277.9 327.5C282.5 334.5 288.1 341 295.2 345.5L295.9 342.7H37.5L38.6 345.2C41.6 341.8 44 338.1 46.2 334.2C53 322.8 57 309.9 58.7 296.8ZM55.7 296.4C54.6 304.9 52.5 313.3 49.3 321.3C46.1 329.2 42.1 336.9 36.5 343.4C35.7 344.3 36.4 346 37.6 345.9H296C296.8 345.9 297.5 345.2 297.5 344.4C297.5 343.8 297.2 343.3 296.7 343.1C295.1 342.2 293.5 340.9 292 339.6C278.9 327.8 270.7 310.3 268 292.9C265.7 276.6 270 259 262.7 243.5C261 239.9 258.9 236.1 255.5 233.8C249.3 229.2 242.5 225.8 236.4 221.3C236.3 221.3 236.3 221.2 236.3 221.2C236.4 221.3 236.5 221.5 236.5 221.6C235.9 220.2 235.7 219 235.9 217.4C236.2 215.4 236.7 212.7 236 210.6C235.7 209.4 235.1 208.3 234.5 207.4C227.3 196.6 214.6 191.8 202.5 189.1C199.1 189.2 195.6 188.6 192.2 188.6C187.5 188.6 182.7 189.3 178 189.9C164.5 192 151.5 195.6 138.2 198.5L139.1 198.4C136 197.8 133.1 198.1 130.1 198.5C110.9 201.4 104.4 209.8 99.2 227.7C98.6 229.7 98.1 231.7 97.6 233.8L98.6 232.6C89 236 78.2 239.1 72.1 248C69.9 250.7 68.3 253.9 66.9 257.1C61.8 269.9 57.8 282.8 55.7 296.4Z" fill="black"/>
<path d="M214.8 230.8C207.4 246.6 195.9 260 182.2 270.6C181.7 271 182.2 271.8 182.8 271.5C195 265.7 205.3 255.8 211.4 243.8C213.4 239.8 215.1 235.5 215.7 231C215.9 230.5 215.1 230.3 214.8 230.8Z" fill="black"/>
<path d="M97.6997 234.1C97.3997 250.8 104.2 267.9 117.2 278.7C117.5 279 117.9 278.9 118.2 278.6C118.5 278.3 118.4 277.9 118.1 277.6C115.2 274.8 112.3 271.9 110.1 268.5C105.5 261.9 102.7 254.1 101.4 246.2C100.8 242.3 100.4 238.1 100.7 234.2C100.8 232.3 97.7997 232.1 97.6997 234.1Z" fill="black"/>
<path d="M156.6 273.8C158.9 281.9 160.8 290.7 159.7 299.1C159.4 301 162.3 301.5 162.7 299.5C163.2 294.9 162.6 290.4 161.8 286C160.9 281.6 159.8 277.4 158.3 273.2C157.9 272.2 156.2 272.7 156.6 273.8Z" fill="black"/>
<path d="M124.8 272.3C121.5 279.4 119.2 286.8 117.4 294.3C117.2 295.1 117.7 295.9 118.5 296.1C119.3 296.3 120.1 295.8 120.3 295C121.3 289.4 122.6 283.8 124.4 278.3C125 276.5 125.6 274.7 126.3 272.9C126.7 272 125.3 271.3 124.8 272.3Z" fill="black"/>
<path d="M232.2 222.2C228.5 242.4 214.3 259.5 197.2 270.4C191.4 274.1 185.2 277.3 178.8 279.9C178.4 280.1 178.2 280.5 178.4 280.9C178.5 281.3 179 281.5 179.3 281.3C185.9 278.9 192.3 275.9 198.3 272.3C210.5 265.1 221.2 255.1 228.4 242.9C232.1 236.6 235 230 236.4 222.8C236.6 221.6 235.8 220.5 234.6 220.3C233.5 220 232.3 220.9 232.2 222.2Z" fill="black"/>
<path d="M162.6 301.3C165.4 301 167.4 298.4 166.8 295.6L165.7 290.3C165.3 288.2 163.3 286.7 161.2 287C159.1 287.2 157.4 289 157.4 291.2V296.6C157.3 299.4 159.7 301.6 162.6 301.3Z" fill="black"/>
<path d="M116.5 297.6C119.2 298.6 122.1 297 122.8 294.2L124.1 288.9C124.6 286.8 123.5 284.7 121.4 283.9C119.4 283.2 117.1 284.1 116.2 286L113.8 290.9C112.6 293.6 113.8 296.7 116.5 297.6Z" fill="black"/>
<path d="M70.2998 294.6C70.2998 294.6 64.6998 326 66.8998 344.4" stroke="black" stroke-width="5.1257" stroke-miterlimit="10" stroke-linecap="round" stroke-linejoin="round"/>
<path d="M200.9 218.6C202.3 214.6 202.9 210.5 202.6 206.3C202.6 205.9 202.3 205.7 201.9 205.7C201.6 205.7 201.3 206 201.3 206.3C201 210.1 199.9 214 198.1 217.3C197.2 219.3 200.2 220.6 200.9 218.6Z" fill="black"/>
<path d="M133.3 223.9C136.1 217.6 143 214.4 149.1 212.2C152.9 211 157.1 210.1 161.1 209.5C170.8 208 184.5 205.7 194.2 204.7C194.3 204.7 194.3 204.5 194.2 204.5C191.4 204.2 188.6 204.2 185.8 204.2C177.4 204.4 169 205.3 160.7 206.6C152.4 207.9 143.5 210.4 137.2 216.4C135.2 218.5 133.4 220.9 132.9 223.8C132.8 224.1 133.2 224.2 133.3 223.9Z" fill="black"/>
<path d="M124 249.6C126.1 259.9 139.7 266.1 162.6 256.8C186.4 247.2 196.7 224.3 199.3 217.5C185.2 191.1 195 172.8 195 172.8C162.5 170 134.1 208 134.1 208L129.7 226.8C129.3 228.4 128.5 229.8 127.3 230.8C125.2 234.5 122.7 243 124 249.6Z" fill="white"/>
<path d="M199.799 217.8C197.899 214.9 196.699 211.5 195.899 208.2C194.399 201.3 193.899 194.3 193.799 187.3V184.7C194.099 182.1 194.999 179.4 195.999 177C197.299 173.8 192.599 171.8 191.099 175C190.899 175.4 190.899 176.1 190.899 176.5C190.599 190.1 189.999 207.6 198.599 218.9C199.199 219.5 200.399 218.6 199.799 217.8Z" fill="black"/>
<path d="M133 207.8C131.5 208.7 131 209.9 130.8 211.1C130.2 213.5 130.4 216.1 129.8 218.6C129.3 221 127.8 223.3 127.4 225.8C126.9 228.4 125.4 233.9 124.8 236.6C124.6 237.2 125 237.9 125.7 238C126.1 238.1 126.4 238 126.7 237.8C128 236.7 128.6 235.6 129.4 234.2C130.7 231.8 131.6 229.6 132.4 226.9C133.1 224.5 132.8 221.9 133.4 219.4C133.9 217 135.3 214.7 135.8 212.2C136.1 211 136.2 209.7 135.3 208.2C134.7 207.6 133.7 207.4 133 207.8Z" fill="black"/>
<path d="M125.799 234.2C144.899 233.2 160.499 227.2 175.699 200.1C162.899 211.4 147.799 215.7 131.899 217.7L129.799 226.9C129.399 228.5 126.999 233.2 125.799 234.2Z" fill="black"/>
<path d="M126.599 230.5C123.199 236.9 121.199 244.9 123.299 252C124.899 257 129.499 260.7 134.499 262.1C146.099 265.2 159.499 260.3 169.799 254.8C182.499 247.7 191.899 235.8 197.899 222.8C198.299 221.8 196.899 221 196.299 222C194.199 226.2 191.799 230.3 189.099 234C186.399 237.8 183.299 241.3 179.799 244.4C169.599 253.6 155.799 259.3 141.999 259.3C127.799 258.9 122.399 251.4 125.699 237.6C126.199 235.4 126.999 233.1 128.099 231.2C128.699 230.4 127.199 229.5 126.599 230.5Z" fill="black"/>
<path d="M87.9002 110.4C86.1002 118.8 89.6002 122.6 89.6002 145.1C89.6002 156.4 90.7002 169.3 92.9002 181.7C95.2002 194.5 101.6 206.6 112.3 215.6C128.5 229.1 145.5 229.7 165.6 214C168.4 211.8 178.2 204.4 180.7 201.9C186.3 196.4 186.8 182.2 190.4 176.7C192.9 172.9 194.4 179 200.1 172.7C208 164.1 217.5 146.8 212.8 116.2C205.2 66.6002 165.9 60.8002 136.8 66.3002C107.7 71.7002 92.7002 88.3002 87.9002 110.4Z" fill="white"/>
<path d="M195.3 181.4C198.8 175.7 203.7 170.9 206.9 165C216.6 147.1 218.6 125.3 213.4 105.7C202.3 63.7001 161.5 56.5001 124.5 67.9001C104.5 74.1001 89.7998 89.2001 85.6998 110C84.1998 117.5 87.3998 124.7 87.8998 132C88.3998 136.4 88.5998 140.8 88.4998 145.2C87.9998 158.6 88.3998 172.2 92.3998 185.1C96.4998 198 103.2 210.8 114.3 219.1C135.2 234.7 159.9 223.3 176.1 206.8C176.6 206.3 175.9 205.5 175.3 205.9C164.7 213.5 153.4 220.7 140.4 222.1C117.7 224.7 101.9 203.5 95.1998 184.3C92.2998 176 90.7998 167.3 90.4998 158.6C90.1998 149.7 90.8998 140.8 90.5998 131.9C90.4998 129.7 90.3998 127.4 90.1998 125.2C89.8998 121.7 88.9998 115.9 89.6998 112.5C91.7998 102.1 96.3998 92.1001 103.8 84.4001C121.1 66.5001 153.7 61.4001 176.7 69.7001C203.7 79.6001 210.8 106.7 212.3 132.7C213.3 148.3 208.7 163.5 196.9 174.2L192.2 179.1C190.3 181.1 193.7 183.8 195.3 181.4Z" fill="black"/>
<path d="M183.5 149.6C183.5 149.6 186.6 134.6 201.2 136.4C213.8 138 218.2 168.2 189.6 176.6" fill="white"/>
<path d="M190.899 163.5C193.199 162.2 194.799 160 194.899 157.3C194.799 155.3 194.499 153 194.999 151C195.299 149.1 197.299 148.6 198.799 148.7C200.399 149 201.399 151 201.699 152.6C201.699 152.7 201.799 153 201.799 153.1C201.899 153.6 202.699 153.6 202.899 153.1C204.199 149.2 201.299 144.9 197.099 145.4C191.199 145.8 190.399 152 191.499 156.7C192.099 158.7 191.299 160.5 190.199 162.2L189.999 162.5C189.499 163.1 190.299 163.9 190.899 163.5Z" fill="black"/>
<path d="M110.899 139C109.399 146.1 106.599 152.7 103.099 158.9C99.9995 166.5 107.999 173.7 115.099 173.4C115.899 173.4 115.999 172.3 115.299 172.1C110.799 170.7 106.699 167.7 105.999 163.1C105.699 161.7 106.099 160.5 106.799 159.3C110.099 153.1 112.099 146 111.599 139C111.599 138.5 110.899 138.5 110.899 139Z" fill="black"/>
<path d="M184 149.7C186.3 143.8 191.3 138.2 198 138.3C198.6 138.2 199.6 138.4 200.2 138.4C201.9 138.5 203.3 139.1 204.6 140.3C211 146.7 209.9 158 204.7 165.1C202.9 167.6 200.6 169.8 198 171.6C195.4 173.4 192.5 174.8 189.4 176C188.7 176.2 189 177.3 189.7 177.2C196.4 175.8 202.8 172.5 207.2 167C214 158.8 215.4 145.1 207.3 137.1C205.5 135.5 203 134.3 200.5 134.3C199.7 134.3 198.5 134.1 197.7 134.3C193.5 134.5 189.5 136.6 186.9 139.9C184.6 142.7 183.3 146.1 182.9 149.5C182.9 150.1 183.8 150.3 184 149.7Z" fill="black"/>
<path d="M83.3734 77.793C81.5733 73.593 81.5734 68.993 84.5734 64.993C93.2734 53.493 120.173 62.193 135.173 57.393C157.673 50.093 185.573 49.1931 201.973 76.1931C206.073 82.993 208.073 84.893 213.873 90.293C219.873 95.893 224.573 106.193 224.973 120.293C225.873 148.593 203.673 173.193 203.673 173.193C202.573 174.693 201.573 175.993 200.673 177.093C192.673 186.693 190.173 205.193 192.573 175.993C217.473 166.393 212.973 138.493 200.873 136.993C188.073 135.393 184.073 146.793 183.373 149.593C174.773 144.093 177.873 132.393 178.873 121.493C172.173 118.493 166.473 111.293 163.473 104.793C160.173 109.393 156.173 112.993 151.373 113.393C146.273 113.893 143.273 109.593 142.273 103.493C135.673 112.193 123.973 122.993 105.573 125.093C96.7734 126.093 89.4734 122.393 84.5734 116.293C83.2734 116.493 82.0733 116.593 80.8734 116.493C67.9734 115.193 53.5733 89.093 83.3734 77.793Z" fill="black"/>
<path d="M148.2 149.2C150.6 149.1 152.4 147.1 152.2 144.7L152.1 141.9C152 139.5 150 137.7 147.6 137.9C145.2 138 143.4 140 143.6 142.4L143.7 145.2C143.8 147.5 145.8 149.3 148.2 149.2Z" fill="black"/>
<path d="M106.1 150.7C108.3 150.6 110 148.7 109.9 146.5L109.8 143.9C109.7 141.7 107.8 140 105.6 140.1C103.4 140.2 101.7 142.1 101.8 144.3L101.9 146.9C102 149.1 103.9 150.8 106.1 150.7Z" fill="black"/>
<path d="M139.2 143.8C142.5 141.6 146.1 140.1 150.1 140.9C151.4 141.1 152.7 141.5 153.5 142.4C153.8 142.8 154.5 142.7 154.5 142.1C154.4 140.1 152.7 138.8 151.1 138C148 136.4 143.7 136.7 140.9 138.8C139.9 139.4 136.5 143.1 138.3 143.9C138.7 144.1 138.9 144 139.2 143.8Z" fill="black"/>
<path d="M110.6 144.3C110.6 140.1 105.4 138.6 102.2 140.1C100.4 140.9 99.0996 142.5 98.5996 144.4C98.3996 145 99.2996 145.5 99.6996 145C101.4 143 104.3 142 106.6 143.2C107.3 143.6 107.4 143.9 107.6 144.3C107.6 146.3 110.5 146.2 110.6 144.3Z" fill="black"/>
<path d="M134.4 127.3C132.3 128 130.2 126.1 130.6 123.8C130.8 122.6 131.3 121.4 132.3 120.5C135.3 117.8 147.7 115.4 155.2 118.9C161.8 122.1 144 124.1 134.4 127.3Z" fill="black"/>
<path d="M104.499 128.9C106.199 129.5 107.999 127.7 107.699 125.6C107.599 124.5 107.199 123.4 106.399 122.6C103.999 120.2 95.7994 118.3 90.5994 122C86.0994 125.1 96.6994 126 104.499 128.9Z" fill="black"/>
<path d="M118.5 186.4C124.9 192.5 137 187.6 140.2 180.2C140.6 179.3 139.6 178.5 138.8 178.9C137.1 179.8 135.6 180.7 134 181.4C129.4 183.5 124.6 185.2 119.5 184.7C118.5 184.5 117.8 185.7 118.5 186.4Z" fill="black"/>
<path d="M194.7 152.7C194.7 152.7 202.7 151.5 202.1 162.7C201.8 168.4 201.8 171.5 201.9 173.1C202 174.2 201.3 175.2 200.3 175.6C199.1 176.1 197.8 175.6 197.2 174.4C196.3 172.8 195.3 170.6 195.3 168.8C195.3 165.8 192.1 163.1 192.1 163.1C192.1 163.1 195 160.6 194.7 152.7Z" fill="white"/>
<path d="M195 153C195 153.1 194.9 153.2 194.8 153.2C194.8 153.2 194.8 153.2 194.9 153.2H195.1C199.9 153.6 201.4 157.8 201.2 162.1C201.1 164.9 200.9 167.7 201 170.4C200.8 171.9 201.7 173.9 200.2 174.7C199.3 175.2 198.1 174.8 197.7 173.8C196.8 172 195.9 170.2 195.9 168.2C195.5 165.9 194 164.1 192.4 162.7V163.5C194.5 161.3 195 158.3 195.3 155.5C195.2 154.8 195.2 153.7 195 153ZM194.3 152.3C194 155.1 194 158 192.8 160.5C192.5 161.2 192 162 191.4 162.5C191 162.8 191 163.4 191.4 163.7C192.8 165 194 166.6 194.2 168.4C194.2 170.6 195.1 172.7 196.1 174.6C196.9 176.3 199.2 177.2 200.9 176.2C202 175.6 202.8 174.4 202.8 173.1C202.8 172.1 202.7 171.3 202.7 170.3C202.7 167.5 202.9 164.8 203 162C203 160.2 202.9 158.1 202.1 156.3C201.1 153.5 198 151.6 195 152.1C194.7 152.1 194.4 152.2 194.3 152.3Z" fill="black"/>
<path d="M196 271.1C192.7 256.7 197 240.5 200.7 226.1C202.2 220.4 203.7 215 204.4 210.3C205.7 202.4 204.8 194.9 201.6 187.9C197.7 179.2 198.3 171.8 198.3 171.5L200.3 171.7C200.3 171.8 199.7 179 203.4 187.1C206.7 194.4 207.7 202.3 206.4 210.6C205.6 215.4 204.2 220.9 202.7 226.6C199 240.7 194.8 256.7 198 270.6C199.8 278.3 196.3 290.9 191.3 303.5C190.5 303.6 189.8 303.7 189 303.8C194.1 291.2 197.7 278.5 196 271.1Z" fill="black"/>
<path d="M201.8 168.5C201.7 170.7 201.8 172.2 201.8 173.1C201.9 174.2 201.2 175.2 200.2 175.6C199 176.1 197.7 175.6 197.1 174.4C196.2 172.8 195.2 170.6 195.2 168.8C195.2 168.7 195.2 168.5 195.2 168.4C197.2 169.2 199.6 169.8 201.8 168.5Z" fill="white"/>
<path d="M201.5 168.9C201.4 170.3 201.3 171.6 201.3 173C201.4 173.6 201.2 174.2 200.8 174.7C199.5 176 197.7 175.2 197.2 173.6C196.4 172 195.7 170.3 195.7 168.5L195 169C197.2 169.4 199.5 170 201.6 169.1C201.6 169.1 201.5 169 201.5 168.9ZM202 168C201.8 168 201.4 168.1 201.2 168.3C199.4 169.6 197.1 169 195.3 168C195 167.8 194.5 168.1 194.6 168.5C194.7 170.8 195.6 173 196.8 175C197.9 176.5 200.2 176.6 201.5 175.3C202.1 174.7 202.4 173.7 202.3 172.9C202.3 171.2 202.1 169.6 202 168Z" fill="black"/>
<path d="M107.6 235C105.9 223.2 107.5 214.8 108.1 212.3C108.4 212.5 108.6 212.8 108.9 213C109.2 213.3 109.5 213.5 109.8 213.8C109.2 217 108.1 224.6 109.6 234.7C110.3 239.4 110.5 246.8 110.6 255.4C110.8 263.7 113.4 284.4 116.5 304C115.8 303.8 115.1 303.6 114.4 303.5C111.3 284.1 108.8 263.8 108.6 255.5C108.4 246.9 108.3 239.6 107.6 235Z" fill="black"/>
<path d="M18.7997 88.3C-41.9003 205.2 64.7998 337.1 192 304.9C249.1 290.7 295 241.2 304.5 183.1C315.3 125.3 289.2 63.2 240.4 30.5C173.5 -15.5 80.7997 -0.200031 32.8997 65.6C32.5998 65.9 32.6998 66.4 33.0998 66.7C33.3997 67 33.8998 66.9 34.1998 66.5C40.7998 58 48.2998 50.3 56.4998 43.4C69.9998 31.9 85.7998 22.9 102.5 16.8C187.5 -14 280.8 37.2 299.4 126.1C320.4 225.7 235.7 317.4 134.7 303.7C56.7998 293.9 -1.10025 222 5.29974 143.8C6.69974 124.9 11.6998 106.2 19.9998 89C20.1998 88.7 19.9998 88.3 19.6998 88.1C19.3998 87.9 18.9998 88 18.7997 88.3Z" fill="black"/>
</g>
</svg>
