<svg width="326" height="440" viewBox="0 0 326 440" fill="none" xmlns="http://www.w3.org/2000/svg">
<path fill-rule="evenodd" clip-rule="evenodd" d="M152.696 172.237C144.336 172.65 131.319 176.235 130.668 178.526C129.652 182.103 131.835 195.515 128.183 202.739C126.626 205.818 120.714 205.542 118.423 206.545C110.758 209.901 88.0666 216.265 83.388 224.278C81.5137 227.489 69.9948 267.324 63.8741 287.647C63.184 289.938 62.4046 292.057 61.5573 294.019L61.2459 292.494C58.7503 280.211 57.5025 272.775 57.5025 270.187C57.5025 266.142 60.7286 249.076 57.5025 244.736C54.3087 240.439 46.6119 236.926 43.149 236.856L43.0454 236.855C40.7717 236.855 38.7988 236.145 37.1267 234.723L34.6752 233.49C22.2038 227.231 14.9174 223.797 12.8161 223.19C9.46304 222.22 3.75644 224.286 6.60974 227.387C8.51193 229.454 13.2919 233.111 20.9498 238.358L23.8372 240.653L23.4884 240.835C19.7567 242.8 17.5625 244.454 16.9058 245.796C16.2289 247.18 16.5537 248.818 17.8802 250.708L17.679 250.904C16.0015 252.55 15.1628 253.655 15.1628 254.217V256.964C13.4941 259.409 13.0769 261.447 13.9113 263.08C14.7457 264.712 16.0686 266.127 17.8802 267.324C19.215 270.836 20.8047 273.335 22.6492 274.822C24.4936 276.309 27.6813 277.547 32.2123 278.536L36.3125 288.341L39.6348 302.117L41.3089 317.488L40.8228 317.839C38.5699 319.481 37.1267 320.697 37.1267 321.955C37.1267 323.913 46.2171 369.974 60.36 372.035C63.4188 372.481 79.2816 370.294 84.4901 366.057L84.4132 366.514C83.1877 373.917 83.4469 377.762 85.1909 378.048C106.624 381.562 167.496 382.648 267.806 381.305C268.402 328.057 265.704 292.595 259.71 274.918C244.38 229.708 227.478 214.267 221.565 212.945C216.385 211.786 198.424 204.636 193.403 202.739C190.125 201.5 189.423 197.786 185.688 197.786L185.387 197.788C181.775 197.824 178.572 198.47 176.772 196.612C172.05 191.736 173.37 184.988 171.411 178.526C170.331 174.965 162.955 171.731 152.696 172.237Z" fill="white"/>
<path fill-rule="evenodd" clip-rule="evenodd" d="M175.664 185.004C175.173 184.032 173.87 184.158 173.011 184.599C170.433 186.484 173.13 190.137 173.843 192.437C175.678 196.899 178.864 201.259 183.262 203.344C182.897 207.779 182.484 212.204 182.332 216.653C176.709 223.629 167.228 226.175 158.812 228.133C145.594 231.789 130.676 224.299 126.215 211.231C131.292 208.346 132.935 200.791 131.42 195.52C131.289 195.15 130.715 194.986 130.511 195.399C129.12 198.26 129.306 201.749 127.725 204.574C112.553 206.027 92.9733 211.753 83.0341 224.024C78.6293 230.163 76.8846 238.148 74.715 245.263C70.0862 259.932 66.398 274.898 61.8584 289.582L61.3231 286.803C59.8566 279.15 58.5239 271.392 59.5144 263.609L59.5322 263.237C59.8558 257.043 61.7937 245.535 56.9914 241.353C52.6475 238.033 46.3548 235.366 40.9037 236.896C31.2032 232.579 22.8305 225.308 12.4993 222.477C9.31961 221.822 4.74527 222.597 5.49686 226.911C7.57971 234.457 16.3022 237.386 22.2649 241.276C18.4427 242.312 13.7832 246.961 16.7694 251.015C16.7952 251.087 16.8182 251.141 16.8411 251.184C14.4194 252.258 14.0802 254.956 14.6745 257.269C14.7348 257.881 14.8955 257.355 14.5365 257.909C11.8039 260.487 13.0118 267.672 17.1281 267.914C16.8586 271.319 19.0451 274.625 21.8144 276.482C24.7992 278.483 29.1149 278.569 31.586 281.307C37.3878 291.539 39.3891 303.618 40.0216 315.334C36.1971 316.766 32.7658 321.047 36.2404 324.68C36.309 324.688 36.3776 324.696 36.4471 324.701C38.4613 330.078 39.239 335.808 40.3042 341.423C41.9431 351.003 46.2141 359.8 51.668 367.781C57.9751 378.345 74.9349 376.67 83.4789 369.852C83.4447 371.641 83.15 373.419 83.7228 375.148C84.5682 377.013 86.6295 376.207 86.8336 374.37C91.3502 376.91 92.414 368.525 87.3932 369.855C87.7794 363.793 88.0033 357.722 88.1849 351.65C93.8693 353.49 94.1143 344.058 88.3 345.944L88.3069 343.336C88.3496 323.342 88.1288 303.279 85.4905 283.442C85.2466 281.959 84.8334 280.523 84.5923 279.048C84.5665 278.896 84.3283 278.939 84.3275 279.085C83.9191 306.857 85.7339 334.688 83.8405 362.47C82.2641 362.951 81.6357 364.76 80.4685 365.814C77.8775 368.206 74.3489 369.371 70.8983 369.777C61.236 371.132 57.0643 368.181 52.7614 359.781C54.7021 361.078 57.3246 358.787 56.1416 356.735L56.1046 356.672C54.8761 354.497 51.4069 355.801 51.8463 358.237C47.5202 351.308 45.256 343.495 43.5838 335.568L43.3575 334.621C42.5447 331.255 41.4898 327.399 39.5377 324.354C51.4419 321.32 63.0867 312.075 64.9494 299.39C67.9718 308.887 72.0663 318.171 75.9688 327.408C77.1741 330.62 77.6763 334.072 79.4039 337.052C79.8056 337.741 80.8244 337.563 81.0517 336.836C82.6053 329.889 77.8973 323.28 75.4529 317.026C73.4567 313.492 67.727 297.35 64.1746 297.311C68.1663 279.812 73.4905 262.444 78.561 245.163C83.464 221.829 93.4554 217.33 114.622 209.983C110.804 229.442 93.3734 248.277 102.649 268.687L102.874 269.216C103.823 271.467 104.611 273.734 103.949 276.204C103.306 278.6 101.842 280.681 100.671 282.837C94.1258 295.012 98.6313 309.232 101.162 321.912C104.359 336.781 107.517 351.664 110.822 366.511C111.473 369.473 111.895 372.524 112.879 375.395C113.387 376.876 115.921 376.735 115.757 375.007C115.445 371.655 114.503 368.386 113.814 365.094C109.699 343.78 104.132 322.717 100.592 301.309C98.3147 285.462 107.279 283.027 106.945 272.788C105.726 267.552 102.501 262.878 102.686 257.298C101.969 240.216 114.41 226.123 115.946 209.509L118.658 208.541C120.013 208.056 121.367 207.567 122.717 207.066C115.613 256.756 117.77 307.532 121.321 357.467C122.047 359.772 121.357 375.867 124.398 374.439C124.552 375.338 125.03 376.223 126.068 376.218C135.501 376.305 144.937 376.454 154.37 376.566C158.907 376.148 165.143 377.881 169.003 375.262C173.458 373.991 173.971 361.921 175.162 357.62L175.626 354.491C183.198 303.37 189.973 251.195 184.531 199.568C192.103 199.859 193.666 208.032 194.227 213.984C195.631 227.118 204.117 238.43 204.524 251.715C204.558 254.939 203.95 258.061 202.661 261.02C199.244 268.271 193.333 276.654 197.75 284.752C202.975 291.056 202.523 292.715 200.606 300.505C195.212 326.26 186.254 351.02 177.732 375.852C179.583 385.503 190.72 349.673 191.768 346.971C196.698 349.45 199.391 341.223 193.736 340.637C197.368 328.478 200.711 316.228 203.493 303.844L203.567 303.495C204.796 297.773 207.214 291.072 203.131 285.997C192.603 275.348 210.087 263.447 207.881 250.547C209.786 251.959 212.668 250.474 212.625 248.102C212.711 245.431 209.125 244.063 207.399 246.101C205.624 235.635 199.451 226.499 197.583 216.064L197.498 215.574C196.865 211.886 196.687 208.006 194.876 204.644C197.341 206.246 199.966 207.54 202.667 208.683C197.839 212.716 207.188 216.397 206.415 210.166C232.893 217.828 238.878 228.513 248.6 253.05C246.784 251.285 243.673 253.569 244.76 255.819C245.627 258.19 249.41 257.497 249.409 254.97L249.852 256.027C255.747 270.125 261.113 284.566 263.809 299.653C258.52 298.906 259.866 307.361 264.659 304.977C266.582 318.396 266.613 332.004 266.378 345.53C261.916 343.19 261.782 351.141 266.334 348.874C266.168 359.959 265.924 371.043 265.74 382.128C265.703 384.487 269.342 384.476 269.399 382.128C269.824 365.096 270.599 348.033 270.231 330.996C270.577 301.426 262.078 272.925 249.413 246.436C238.208 215.936 222.73 212.467 194.253 203.599C191.624 199.697 186.008 196.006 181.426 198.456C178.863 194.317 177.561 189.414 175.664 185.004ZM224.454 291.304C224.348 290.928 223.811 291.022 223.794 291.393C223.556 296.177 223.768 300.993 224.095 305.798C224.293 308.732 224.537 311.662 224.744 314.575C225.292 322.262 225.734 329.957 226.069 337.657C225.952 337.609 225.831 337.565 225.705 337.531C225.125 337.373 224.545 337.373 223.966 337.531C223.449 337.676 222.997 337.928 222.608 338.292L222.525 338.372C222.207 338.667 221.98 339.018 221.848 339.423C221.66 339.783 221.565 340.168 221.565 340.579L221.567 340.683C221.57 341.274 221.716 341.822 222.014 342.333C222.304 342.824 222.695 343.214 223.185 343.507C223.696 343.802 224.245 343.949 224.835 343.951C224.899 343.957 224.962 343.963 225.025 343.966C225.464 343.983 225.874 343.891 226.253 343.693L226.31 343.676C226.454 347.583 226.572 351.492 226.658 355.401C226.735 358.808 226.838 362.215 226.907 365.621L226.939 367.326L227.002 371.092C227.022 372.641 227.012 374.124 227.539 375.585L227.602 375.753C227.981 376.729 228.276 378.087 229.29 378.629C230.098 379.062 231.189 378.902 231.654 378.058C232.044 377.352 231.706 376.336 231.129 375.859C231.14 375.828 231.157 375.799 231.172 375.768C231.261 375.509 231.396 375.265 231.476 375.004C231.729 374.178 231.66 373.297 231.662 372.438C231.662 370.923 231.611 369.407 231.571 367.895C231.482 364.674 231.378 361.457 231.252 358.24C230.826 347.446 230.023 336.653 229.103 325.89L228.791 322.257C228.375 317.426 227.944 312.59 227.335 307.784C227.307 307.555 227.278 307.325 227.246 307.095C227.573 306.932 227.877 306.705 228.119 306.453C229.085 305.437 229.672 303.919 230.222 302.612L230.348 302.314C230.945 300.919 231.496 299.507 231.78 298.009L231.807 297.871C231.937 297.233 232.193 296.102 231.516 295.793C231.163 295.632 230.94 295.747 230.825 296.1C230.81 296.146 230.822 296.198 230.847 296.238C230.569 296.665 230.133 297.064 229.857 297.46L228.915 298.809L228.448 299.486C227.857 300.356 227.226 301.189 226.574 302.01C226.061 298.405 225.432 294.814 224.454 291.304ZM185.787 371.638C184.608 370.713 182.688 371.215 182.688 372.921C182.688 374.634 184.611 375.128 185.787 374.203L185.846 374.16L185.902 374.114C186.543 373.614 186.564 372.31 185.95 371.767L185.902 371.727C185.865 371.695 185.827 371.666 185.787 371.638ZM237.168 368.306L237.066 368.308C236.532 368.308 236.036 368.443 235.574 368.713C235.373 368.865 235.175 369.02 234.974 369.175C234.607 369.542 234.354 369.979 234.214 370.481L234.107 371.267C234.093 371.675 234.176 372.054 234.363 372.407C234.484 372.774 234.687 373.093 234.974 373.36C235.244 373.65 235.56 373.853 235.927 373.971C236.251 374.142 236.596 374.229 236.965 374.229L237.066 374.227C237.603 374.227 238.099 374.092 238.561 373.822C238.762 373.67 238.96 373.514 239.161 373.36C239.526 372.992 239.781 372.556 239.921 372.054C239.956 371.792 239.99 371.528 240.028 371.267C240.042 370.86 239.956 370.481 239.772 370.128C239.652 369.76 239.448 369.442 239.161 369.175C238.891 368.885 238.576 368.681 238.208 368.563C237.885 368.393 237.537 368.306 237.168 368.306ZM102.832 362.849L102.08 362.95C101.36 363.113 100.781 363.644 100.393 364.25C100.186 364.574 100.075 364.924 100.057 365.3C99.9738 365.673 99.9913 366.049 100.109 366.425C100.195 366.792 100.364 367.114 100.614 367.387C100.7 367.522 100.801 367.645 100.915 367.754C101.151 368.147 101.506 368.405 101.874 368.67C102.184 368.868 102.52 368.974 102.881 368.991C103.119 369.054 103.36 369.054 103.601 368.991C103.96 368.974 104.296 368.868 104.606 368.67C104.789 368.529 104.973 368.386 105.154 368.245C105.314 368.058 105.464 367.866 105.605 367.665C105.699 367.444 105.791 367.226 105.883 367.008C106.052 366.482 105.969 366.018 105.877 365.493C105.863 365.404 105.84 365.323 105.808 365.237L105.746 365.07C105.581 364.634 105.493 364.486 105.2 364.106L105.088 363.957C105.032 363.883 104.975 363.81 104.91 363.745C104.726 363.555 104.465 363.397 104.259 363.234C103.817 362.978 103.34 362.852 102.832 362.849ZM200.263 361.011L200.167 361.012C199.751 361.015 199.361 361.118 198.999 361.328L198.529 361.692C198.242 361.982 198.044 362.321 197.932 362.714C197.906 362.92 197.877 363.127 197.849 363.331C197.837 363.65 197.903 363.948 198.05 364.227C198.141 364.514 198.302 364.76 198.529 364.973C198.738 365.197 198.988 365.358 199.275 365.452C199.525 365.583 199.795 365.652 200.081 365.652L200.167 365.65C200.586 365.65 200.977 365.544 201.338 365.334L201.809 364.973C202.096 364.683 202.294 364.342 202.406 363.948C202.432 363.742 202.46 363.538 202.489 363.331C202.501 363.013 202.434 362.714 202.288 362.439C202.193 362.152 202.036 361.902 201.809 361.692C201.599 361.466 201.35 361.305 201.063 361.213C200.812 361.081 200.548 361.015 200.263 361.011ZM219.202 360.062C218.603 360.056 217.994 360.226 217.503 360.573C217.027 360.911 216.666 361.276 216.433 361.824C216.37 361.974 216.307 362.12 216.252 362.269C216.005 362.926 215.959 363.587 216.301 364.23C216.631 364.852 217.343 365.125 217.98 365.311C218.519 365.472 219.13 365.498 219.667 365.306C219.934 365.211 220.195 365.111 220.436 364.964C220.887 364.686 221.131 364.356 221.432 363.948C221.667 363.546 221.785 363.11 221.785 362.645C221.785 362.177 221.667 361.744 221.432 361.339C220.97 360.55 220.115 360.068 219.202 360.062ZM249.621 360.616C248.863 360.616 248.198 360.966 247.741 361.557C247.28 362.157 247.11 362.904 247.314 363.647C247.529 364.433 248.18 365.122 248.987 365.32C249.584 365.467 250.072 365.461 250.666 365.36C251.168 365.274 251.552 364.976 251.937 364.666C252.376 364.307 252.511 363.653 252.439 363.125C252.37 362.596 252.126 362.252 251.756 361.939L251.753 361.931L251.891 362.037C251.839 361.991 251.788 361.942 251.736 361.893C251.719 361.865 251.705 361.833 251.69 361.801C251.478 361.44 251.191 361.156 250.832 360.943C250.456 360.725 250.055 360.616 249.621 360.616ZM72.9644 351.922C72.5482 351.81 72.1293 351.81 71.7132 351.922C71.4058 351.994 71.1392 352.135 70.9122 352.344C70.6824 352.494 70.4946 352.685 70.3526 352.923L70.307 353.004C69.9796 353.561 69.9282 354.198 70.0688 354.818C70.2436 355.584 70.9495 356.282 71.7132 356.463L71.7388 356.467L71.7645 356.474C72.0745 356.572 72.3875 356.586 72.6972 356.515C73.0103 356.5 73.3001 356.408 73.5667 356.236C73.9053 356.018 74.1894 355.737 74.4075 355.398C74.58 355.128 74.6716 354.838 74.6862 354.525C74.7404 354.319 74.7404 354.112 74.6862 353.906C74.6716 353.592 74.58 353.303 74.4075 353.033L74.0405 352.559L74.0029 352.528C73.7102 352.235 73.3633 352.034 72.9644 351.922ZM101.857 336.733C98.0943 336.733 98.1001 342.571 101.857 342.571C105.618 342.571 105.613 336.733 101.857 336.733ZM239.598 335.996C239.201 335.907 238.805 335.924 238.412 336.047C238.174 336.148 237.939 336.248 237.703 336.345L237.101 336.811C236.989 336.905 236.934 337.009 236.831 337.144L236.702 337.313C236.515 337.563 236.511 337.615 236.306 338.148C236.168 338.659 236.168 339.17 236.306 339.681C236.372 339.928 236.472 340.16 236.601 340.375C236.719 340.582 236.861 340.763 237.02 340.93L237.101 341.013C237.37 341.303 237.689 341.506 238.056 341.627C238.289 341.762 238.538 341.828 238.805 341.828C239.201 341.917 239.598 341.9 239.99 341.776C240.229 341.676 240.464 341.575 240.699 341.478L241.302 341.013L241.767 340.41L241.915 340.056L242.065 339.701L242.171 338.912C242.186 338.501 242.102 338.122 241.916 337.766C241.845 337.516 241.718 337.296 241.535 337.112C241.402 336.888 241.225 336.71 241.001 336.578C240.817 336.394 240.596 336.268 240.346 336.196C240.114 336.062 239.864 335.996 239.598 335.996ZM53.5193 331.825C53.2062 331.814 52.9135 331.88 52.6437 332.023C52.549 332.055 52.4569 332.095 52.3682 332.141C52.021 332.345 51.7455 332.62 51.5417 332.965C51.3753 333.229 51.2835 333.513 51.2691 333.82C51.2068 334.097 51.2125 334.375 51.2876 334.653L51.3122 334.736C51.3753 334.962 51.47 335.172 51.596 335.364C51.608 335.387 51.6221 335.41 51.6393 335.43C51.8316 335.734 52.087 335.984 52.4027 336.171C52.7528 336.371 53.1287 336.475 53.5362 336.478C54.3483 336.478 55.0485 336.039 55.4761 335.364C55.5364 335.269 55.5708 335.149 55.6136 335.051C55.6512 334.959 55.7115 334.842 55.7433 334.736C55.8521 334.328 55.8521 333.921 55.7433 333.513C55.6716 333.214 55.5364 332.953 55.3326 332.732C55.1694 332.483 54.9541 332.285 54.687 332.141C54.3558 331.948 54 331.845 53.6224 331.828L53.5193 331.825ZM212.364 328.969C211.966 328.861 211.571 328.852 211.177 328.944L211.078 328.969C210.763 329.044 210.49 329.188 210.255 329.4C209.993 329.572 209.784 329.799 209.632 330.08C209.413 330.456 209.304 330.864 209.302 331.3C209.304 331.736 209.413 332.144 209.632 332.52C209.847 332.884 210.137 333.171 210.501 333.387L210.817 333.539C211.081 333.705 211.362 333.794 211.666 333.808C211.87 333.863 212.074 333.863 212.275 333.808C212.481 333.808 212.674 333.757 212.851 333.654C213.047 333.599 213.213 333.501 213.357 333.358C213.606 333.197 213.801 332.985 213.945 332.718L214.177 332.169L214.258 331.561L214.177 330.956L214.051 330.657C213.936 330.246 213.73 329.891 213.428 329.589C213.127 329.291 212.771 329.084 212.364 328.969ZM70.0485 324.127C69.6298 323.995 69.2134 323.978 68.7973 324.07C68.5164 324.07 68.2523 324.142 68.0081 324.285C67.7413 324.36 67.512 324.492 67.3165 324.687C66.9753 324.908 66.7082 325.201 66.5101 325.565L66.1948 326.315C66.0054 326.799 66.0742 327.514 66.1887 328.002C66.2834 328.404 66.4671 328.754 66.7397 329.052C66.8775 329.285 67.0611 329.469 67.2939 329.607C67.5596 329.848 67.866 330.021 68.2136 330.123L68.3095 330.149L68.3439 330.157C68.3499 330.16 68.3554 330.16 68.3611 330.16C68.364 330.163 68.37 330.163 68.3729 330.163C68.5103 330.198 68.651 330.218 68.7973 330.223C69.2134 330.315 69.6298 330.298 70.0485 330.166C70.2953 330.063 70.545 329.957 70.7946 329.851C71.007 329.69 71.2168 329.526 71.4288 329.362C71.5924 329.15 71.756 328.938 71.9196 328.728C72.1494 328.37 72.2725 327.979 72.2898 327.563C72.3647 327.285 72.3647 327.009 72.2898 326.73C72.2898 326.447 72.218 326.185 72.0777 325.941C71.9511 325.551 71.7359 325.215 71.4288 324.931C71.2168 324.767 71.007 324.604 70.7946 324.443C70.545 324.337 70.2953 324.231 70.0485 324.127ZM253.079 313.852C252.646 313.734 252.212 313.734 251.779 313.852L251.197 314.096C250.91 314.251 250.683 314.46 250.511 314.727C250.293 314.963 250.147 315.241 250.072 315.56C249.902 315.996 249.922 316.688 250.057 317.133C250.209 317.638 250.445 318.04 250.809 318.419C251.415 319.044 252.345 319.225 253.168 319.036C253.395 318.984 253.61 318.883 253.805 318.76C254.428 318.375 254.847 317.704 254.844 316.96C254.844 316.88 254.838 316.8 254.827 316.72C254.867 316.556 254.882 316.386 254.876 316.208L254.789 315.56L254.784 315.543C254.669 315.132 254.462 314.776 254.161 314.475C253.883 314.199 253.558 314 253.187 313.88L253.093 313.852H253.079ZM36.5332 249.402C37.3172 242.974 40.2646 236.058 49.2546 239.833L49.9224 240.083C52.1468 240.925 54.739 242.032 56.0929 243.977C57.0255 245.318 56.7101 247.915 56.839 249.479C57.4253 254.565 57.1107 259.644 56.5001 264.709C55.7118 276.579 58.2073 288.879 63.1756 299.668C58.2032 307.714 51.5487 315.219 42.4709 318.573C42.0869 309.425 40.2959 300.444 38.3899 291.516L38.3148 291.127C37.5526 287.101 37.1711 282.97 34.5275 279.622C29.1502 273.783 21.7544 277.088 18.2157 267.708C18.959 267.332 18.5486 266.046 17.653 266.293C14.5494 266.844 14.0452 261.09 16.1694 259.703C18.3828 258.353 16.1544 255.863 17.0966 254.066C17.6217 253.291 18.7553 253.265 19.2692 252.372C20.6312 249.086 13.815 246.98 21.8307 243.276C23.4713 242.692 25.3051 243.054 26.9598 243.048C29.3939 243.275 31.3284 244.99 33.5544 245.53C31.1306 251.807 37.2463 257.851 42.7662 252.838C45.7699 255.677 49.1289 262.15 41.8275 259.132C38.2538 256.747 35.1772 253.663 31.0287 252.194L30.9411 252.167C29.4011 251.662 22.6623 248.388 22.9964 251.222C25.5206 253.658 29.6837 253.63 32.6071 255.608C36.66 257.482 39.2516 262.024 44.1035 261.962C45.2221 268.755 37.5149 264.621 34.6449 262.748L33.8491 262.316C29.8009 260.129 25.6917 258.103 20.9707 258.076C19.6678 258.067 19.6736 260.076 20.9707 260.093C27.1234 260.132 32.131 263.978 37.285 266.838C37.7924 270.803 31.9867 269.067 29.7836 268.482C27.4737 268.158 23.7641 265.659 21.7423 266.979C20.9517 269.011 24.4313 268.86 25.6426 269.476C20.1121 272.133 24.9576 273.806 26.4404 269.723L26.8747 269.871C30.5781 271.116 39.5581 273.678 38.49 267.404C39.8454 268.004 41.4981 268.362 42.9958 268.029C46.7307 273.555 52.6885 271.417 44.0289 267.651C45.9803 266.743 46.632 263.238 44.7575 261.933C51.5739 261.517 46.5132 254.364 43.692 251.981C43.9583 251.711 44.2162 251.437 44.4567 251.159C46.0836 251.933 47.7936 252.404 49.6222 252.571C51.3725 252.728 51.7625 249.749 50.0352 249.505C48.1842 249.244 46.4793 248.75 44.8496 247.82C42.3793 246.753 41.5362 251.338 39.064 251.5C37.7155 251.767 36.8032 250.584 36.5332 249.402ZM93.9216 308.554C93.3247 308.554 92.7941 308.804 92.3607 309.199C91.9274 309.595 91.7409 310.19 91.7151 310.758C91.7036 311.062 91.7667 311.346 91.9044 311.61C91.9934 311.883 92.1455 312.118 92.3607 312.32C92.7625 312.718 93.3565 312.965 93.9216 312.965C94.5185 312.965 95.0494 312.715 95.483 312.32C95.916 311.92 96.1029 311.329 96.1287 310.758C96.1402 310.457 96.0767 310.172 95.9393 309.908C95.8592 309.663 95.728 309.445 95.5457 309.26L95.483 309.199C95.0809 308.798 94.4872 308.554 93.9216 308.554ZM75.8349 294.941L75.7393 294.943C75.2343 294.946 74.7662 295.072 74.3303 295.325C74.1409 295.471 73.9515 295.615 73.7647 295.761C73.4177 296.111 73.1795 296.522 73.0472 296.995C72.9124 297.489 72.9124 297.986 73.0472 298.479C73.0932 298.764 73.1993 299.039 73.3658 299.277C73.6129 299.687 73.9397 300.018 74.3532 300.261C74.7808 300.511 75.2429 300.635 75.7393 300.637C76.2355 300.635 76.6978 300.511 77.1254 300.261C77.5386 300.018 77.8658 299.687 78.1097 299.277C78.279 299.039 78.3852 298.764 78.4311 298.479C78.566 297.986 78.566 297.489 78.4311 296.995C78.3085 296.555 78.0944 296.17 77.7864 295.837L77.7137 295.761C77.4612 295.489 77.1627 295.296 76.8155 295.184C76.5103 295.024 76.1835 294.943 75.8349 294.941ZM213.868 295.095C213.655 295.038 213.445 295.038 213.233 295.095C212.917 295.109 212.622 295.204 212.349 295.377C212.189 295.503 212.028 295.626 211.867 295.75L211.727 295.918C211.428 296.283 211.42 296.345 211.19 296.901C211.095 297.211 211.081 297.521 211.15 297.831C211.15 298.04 211.204 298.235 211.308 298.416C211.365 298.614 211.463 298.786 211.609 298.93C211.712 299.105 211.85 299.245 212.025 299.349C212.249 299.553 212.513 299.693 212.817 299.765L213.434 299.848C213.514 299.837 213.598 299.825 213.678 299.817C213.775 299.814 213.869 299.803 213.961 299.785L214.054 299.765L214.139 299.742C214.251 299.709 214.361 299.666 214.467 299.61C214.668 299.553 214.843 299.452 214.993 299.303C215.251 299.137 215.457 298.912 215.606 298.634L215.647 298.543C215.701 298.445 215.747 298.344 215.782 298.235C215.879 298.063 215.928 297.879 215.931 297.681C215.988 297.418 215.984 297.157 215.916 296.896L215.89 296.809L215.67 296.283C215.555 296.106 215.434 295.925 215.28 295.778C215.186 295.696 214.958 295.518 214.83 295.429L214.752 295.377C214.479 295.204 214.183 295.109 213.868 295.095ZM248.465 290.991C248.051 289.364 245.916 288.85 244.754 290.012C243.592 291.175 244.106 293.31 245.732 293.723L245.919 293.769C247.492 294.168 248.909 292.748 248.511 291.175L248.465 290.991ZM51.4959 277.716C51.5074 277.556 51.3008 277.498 51.1975 277.593C49.8143 278.833 48.9333 280.32 47.2545 281.281C45.5668 282.246 43.828 282.168 42.0689 282.791C41.472 283.003 41.4691 283.801 42.0689 284.011C45.3978 285.173 51.2434 281.232 51.4959 277.716ZM207.91 277.464C207.539 277.349 207.166 277.332 206.796 277.415C206.544 277.415 206.309 277.478 206.093 277.604C205.855 277.67 205.651 277.791 205.476 277.963C205.267 278.087 205.1 278.256 204.974 278.465C204.727 278.735 204.561 279.051 204.475 279.413L204.377 280.156L204.475 280.899C204.57 281.12 204.664 281.344 204.756 281.565L205.013 281.913C205.22 282.19 205.254 282.193 205.758 282.567C206.079 282.77 206.426 282.883 206.796 282.897C207.043 282.966 207.29 282.966 207.539 282.897C207.789 282.897 208.025 282.834 208.243 282.708C208.478 282.642 208.684 282.521 208.86 282.349C209.164 282.151 209.402 281.89 209.577 281.565C209.672 281.344 209.766 281.12 209.858 280.899L209.959 280.156L209.858 279.413L209.853 279.39C209.721 278.925 209.485 278.52 209.147 278.178L208.59 277.748C208.372 277.607 208.145 277.536 207.91 277.464ZM73.9484 278.021C73.1538 277.802 72.2811 278.032 71.6989 278.615C71.116 279.197 70.8864 280.067 71.1046 280.862C71.3198 281.637 71.9425 282.265 72.7202 282.475C72.9527 282.538 73.188 282.573 73.4261 282.561C73.8253 282.558 74.1981 282.458 74.5453 282.257L74.993 281.909C75.2114 281.709 75.3632 281.471 75.4525 281.195C75.5931 280.931 75.6562 280.647 75.6447 280.34L75.6473 280.285C75.6562 280.176 75.6419 280.067 75.6071 279.961C75.6071 279.849 75.5899 279.74 75.5612 279.633C75.3517 278.859 74.7204 278.233 73.9484 278.021ZM245.317 270.248C245.061 270.239 244.823 270.291 244.602 270.409C244.37 270.483 244.172 270.61 244.005 270.793C243.821 270.96 243.695 271.161 243.621 271.39C243.503 271.612 243.451 271.85 243.46 272.105C243.46 272.441 243.546 272.754 243.712 273.041C243.81 273.167 243.908 273.293 244.005 273.417C244.235 273.649 244.507 273.807 244.823 273.896L245.007 273.959C245.276 274.057 245.54 274.063 245.822 274.026C246.117 273.985 246.39 273.905 246.631 273.721C246.867 273.583 247.053 273.397 247.191 273.161L247.348 272.788C247.383 272.662 247.397 272.473 247.406 272.34C247.406 272.32 247.406 272.303 247.409 272.283C247.409 272.171 247.374 271.899 247.346 271.786C247.282 271.551 247.154 271.327 247.007 271.138C246.881 270.94 246.708 270.785 246.496 270.67L246.477 270.656L246.456 270.641C246.39 270.595 246.321 270.549 246.252 270.5C245.965 270.334 245.652 270.248 245.317 270.248ZM97.1271 268.21C96.6679 268.21 96.2404 268.328 95.8443 268.558C95.8303 268.563 95.8159 268.569 95.8044 268.575C95.4254 268.799 95.1243 269.1 94.9002 269.479C94.6706 269.872 94.5561 270.297 94.5561 270.751C94.5561 271.207 94.6706 271.629 94.9002 272.022C95.1243 272.401 95.4254 272.702 95.8044 272.926C95.8159 272.935 95.8303 272.94 95.8443 272.946C96.2404 273.176 96.6679 273.29 97.1271 273.293C97.5834 273.29 98.011 273.176 98.4073 272.946C99.1818 272.493 99.6671 271.646 99.6671 270.751C99.6671 269.855 99.1818 269.008 98.4073 268.558C98.011 268.328 97.5834 268.21 97.1271 268.21ZM216.301 264.891L216.223 264.89C215.919 264.878 215.635 264.941 215.374 265.082C215.102 265.171 214.863 265.323 214.662 265.538L214.243 265.888L214.122 265.987C214.102 266.003 214.082 266.02 214.063 266.038C213.781 266.322 213.589 266.655 213.48 267.039C213.445 267.26 213.417 267.478 213.394 267.699C213.331 268.273 213.669 268.862 214.042 269.27C214.243 269.485 214.482 269.637 214.757 269.729C215.021 269.867 215.308 269.929 215.612 269.918C216.235 269.864 216.826 269.731 217.274 269.249C217.326 269.192 217.374 269.132 217.426 269.071L217.784 268.658C218.057 268.383 218.247 268.058 218.35 267.685C218.379 267.487 218.404 267.292 218.43 267.097C218.456 266.508 218.169 265.957 217.784 265.538C217.429 265.15 216.827 264.913 216.301 264.891ZM230.787 258.848C227.803 258.848 227.809 263.478 230.787 263.478C233.769 263.478 233.763 258.848 230.787 258.848ZM80.735 252.357L80.6409 252.358C80.147 252.361 79.6853 252.485 79.2574 252.734L78.701 253.162C78.3621 253.506 78.127 253.908 77.9947 254.373C77.9635 254.617 77.9316 254.861 77.8972 255.102C77.8828 255.481 77.9635 255.834 78.1353 256.161C78.2444 256.5 78.4338 256.795 78.701 257.045C78.9503 257.312 79.2433 257.502 79.5846 257.611C79.9117 257.783 80.2647 257.863 80.6409 257.849C81.1371 257.846 81.5994 257.723 82.027 257.473C82.2132 257.329 82.3969 257.186 82.5834 257.045C82.896 256.727 83.1205 256.361 83.2548 255.94L83.2865 255.834L83.3869 255.102C83.4013 254.726 83.3212 254.373 83.149 254.046C83.0397 253.704 82.8503 253.412 82.5834 253.162C82.3337 252.895 82.0382 252.705 81.6995 252.596C81.3999 252.439 81.0781 252.358 80.735 252.357ZM94.1773 243.69C93.9104 243.681 93.6636 243.736 93.4308 243.857C93.1929 243.934 92.9863 244.069 92.8113 244.256C92.4408 244.551 92.2144 245.142 92.2144 245.622C92.2144 246.101 92.4408 246.693 92.8113 246.988C93.0523 247.226 93.3364 247.393 93.6636 247.484L94.1773 247.554C94.6766 247.577 95.1845 247.315 95.5404 246.988C95.6121 246.922 95.681 246.856 95.7527 246.793C96.0767 246.494 96.2173 246.049 96.2377 245.622C96.2463 245.395 96.1973 245.183 96.0942 244.985C96.0279 244.778 95.9134 244.603 95.7527 244.451C95.681 244.388 95.6121 244.322 95.5404 244.256C95.1527 243.897 94.6995 243.716 94.1773 243.69ZM9.0097 228.252C7.12399 225.954 8.22195 224.319 11.0558 224.887C15.9372 225.548 20.5313 228.633 24.8304 230.846C29.5227 233.325 34.3585 235.369 39.1449 237.698C37.1699 238.911 35.7012 240.809 34.5792 242.976C32.3394 241.274 29.4762 240.461 26.6814 240.355C21.6109 235.498 13.2138 234.386 9.0097 228.252ZM231.791 235.878C231.28 235.88 230.801 236 230.352 236.24L230.256 236.294L229.642 236.77C229.344 237.046 229.134 237.373 229.011 237.749C228.821 238.111 228.735 238.504 228.75 238.923C228.735 239.342 228.821 239.732 229.011 240.094C229.134 240.473 229.344 240.797 229.642 241.073C229.812 241.294 230.03 241.466 230.291 241.592C230.535 241.693 230.776 241.796 231.02 241.899C231.292 241.985 231.608 241.997 231.904 242.011C232.44 242.008 232.939 241.873 233.405 241.604L234.007 241.139C234.297 240.869 234.504 240.55 234.624 240.18C234.795 239.854 234.882 239.506 234.882 239.134L234.879 239.032C234.879 239.009 234.879 238.983 234.876 238.957C234.842 238.687 234.805 238.418 234.768 238.148C234.673 237.752 234.492 237.405 234.222 237.112C234.153 236.974 234.062 236.862 233.944 236.77C233.565 236.391 233.118 236.133 232.601 235.986C232.331 235.952 232.061 235.915 231.791 235.878ZM98.638 228.273L98.5508 228.274C98.1633 228.274 97.8046 228.372 97.4714 228.564C97.3254 228.677 97.1819 228.788 97.0384 228.9C96.7712 229.167 96.5876 229.483 96.4874 229.844L96.4097 230.412C96.4013 230.708 96.4616 230.981 96.5965 231.237C96.6823 231.501 96.8289 231.73 97.0384 231.925C97.2307 232.135 97.46 232.281 97.7269 232.367C97.9797 232.502 98.2552 232.563 98.5508 232.551C98.9353 232.551 99.2969 232.453 99.6298 232.258C99.7732 232.149 99.9196 232.037 100.063 231.925C100.305 231.681 100.48 231.395 100.584 231.07L100.611 230.981L100.688 230.412C100.7 230.117 100.64 229.844 100.505 229.589C100.419 229.322 100.269 229.092 100.063 228.9C99.868 228.69 99.6381 228.544 99.3741 228.458C99.1445 228.337 98.8983 228.276 98.638 228.273ZM215.018 225.164L214.918 225.166C214.347 225.169 213.816 225.312 213.322 225.599C213.11 225.763 212.897 225.927 212.685 226.093C212.292 226.486 212.022 226.951 211.87 227.488L211.758 228.326C211.741 228.762 211.833 229.167 212.031 229.543C212.157 229.936 212.375 230.275 212.685 230.562C212.969 230.869 213.308 231.087 213.701 231.214C214.077 231.411 214.482 231.504 214.918 231.486C215.489 231.486 216.02 231.343 216.513 231.056C216.725 230.892 216.938 230.726 217.153 230.562C217.544 230.166 217.813 229.701 217.965 229.167L218.077 228.326C218.095 227.893 218.003 227.485 217.805 227.109C217.678 226.719 217.46 226.377 217.153 226.093C216.866 225.783 216.528 225.565 216.135 225.439C215.787 225.256 215.416 225.166 215.018 225.164ZM108.758 217.273C108.497 217.204 108.236 217.204 107.975 217.273C107.585 217.29 107.22 217.408 106.881 217.623L106.287 218.083C106.279 218.091 106.27 218.1 106.261 218.111C105.903 218.473 105.653 218.901 105.516 219.391L105.412 220.163C105.398 220.562 105.481 220.935 105.662 221.28C105.77 221.611 105.948 221.899 106.193 222.148L106.287 222.241C106.554 222.528 106.867 222.732 107.232 222.85C107.461 222.985 107.711 223.051 107.975 223.051C108.365 223.14 108.758 223.123 109.149 222.999C109.381 222.898 109.616 222.801 109.851 222.704L109.926 222.66C110.813 222.175 111.361 221.159 111.361 220.163C111.361 219.167 110.813 218.148 109.926 217.663C109.9 217.652 109.878 217.637 109.851 217.623C109.513 217.408 109.149 217.29 108.758 217.273Z" fill="black"/>
<path fill-rule="evenodd" clip-rule="evenodd" d="M111.512 66.3082C126.856 61.804 179.625 66.421 180.93 67.3966C183.066 69.1712 193.452 74.8021 195.069 76.0877C209.683 91.5792 195.751 114.585 196.823 133.273C196.755 139.902 199.579 145.955 200.877 152.332C201.425 155.674 201.305 159.131 199.563 162.131C196.501 167.493 190.035 168.58 184.776 170.741C182.159 171.868 179.714 173.466 177.472 175.214C162.382 188.566 153.983 197.708 131.964 194.696C131.852 195.748 130.92 196.781 129.766 196.311C127.063 195.21 124.379 194.042 121.652 192.998C121.069 194.403 119.395 194.804 118.261 193.564L118.254 193.572C113.207 189.477 109.997 183.878 107.612 177.883C105.944 174.425 104.578 170.817 103.534 167.101C103.416 166.68 103.431 166.305 103.538 165.981C98.7208 149.379 96.9382 131.881 98.2063 114.644C98.4631 111.087 99.1346 107.484 98.9696 103.913C98.8204 100.686 97.4306 97.6338 96.3711 94.6287C90.9077 81.8537 99.2592 70.3305 111.512 66.3082Z" fill="white"/>
<path fill-rule="evenodd" clip-rule="evenodd" d="M109.582 45.5661L109.418 45.4393C107.649 44.0511 105.981 42.2318 103.487 42.914C101.441 43.4737 100.408 45.1671 99.9685 47.2136C99.3457 46.562 98.7402 45.8875 98.1491 45.1901C96.542 43.2958 92.952 44.2774 92.4728 46.6912C91.5028 51.5533 91.454 56.5015 92.3981 61.3722C92.5416 62.1099 92.711 62.8446 92.909 63.5708C91.8328 62.2304 90.8313 60.8326 89.9331 59.3602C88.9602 57.7615 86.762 58.5537 86.6099 60.2615C86.5698 60.7035 86.5468 61.1512 86.5411 61.6018C85.8552 61.8429 85.3817 62.549 85.5625 63.4158C86.5612 68.186 87.8267 72.8903 89.3477 77.5142C86.9026 76.2168 84.1621 75.4476 81.5822 76.3632C77.4842 77.8213 76.5085 82.293 77.3092 86.1419C78.3165 90.9811 81.4846 95.0309 85.5711 97.6858C86.0561 98.4149 86.5353 99.1496 86.9916 99.8988C87.0002 102.014 87.3848 104.124 88.1596 106.084C89.032 108.285 90.5701 110.188 92.4642 111.635C93.1297 113.085 94.8929 114.144 96.4407 113.85L96.5219 113.834L96.5248 113.836C96.1288 115.254 95.7873 116.686 95.4917 118.122C93.2031 129.24 94.3618 140.814 96.4493 151.87L96.5162 152.222C98.3901 162.061 100.571 172.25 104.81 181.386C108.644 189.647 115.144 196.911 124.433 198.714C135.361 200.835 147.457 197.474 156.855 191.868C160.261 189.836 157.139 184.48 153.747 186.547C148.851 189.526 143.534 191.607 137.909 192.703C132.652 193.725 126.772 194.073 121.73 191.954C114.707 189.004 110.535 181.797 107.895 175.012C106.339 171.008 105.174 166.875 104.089 162.724C102.692 157.389 101.389 152.019 100.41 146.588C98.5881 136.459 97.997 125.94 99.9254 115.782C100.54 112.542 101.409 109.281 102.543 106.147C102.721 105.926 102.89 105.679 103.042 105.41C104.227 103.332 105.045 100.969 105.926 98.722C106.698 97.3816 107.542 96.0929 108.437 94.8329C109.776 93.8039 111.051 92.7038 112.219 91.5035C108.826 89.3066 105.833 86.5564 103.679 83.0531C103.324 82.4753 103.55 81.9231 103.971 81.6116C105.69 83.7634 107.917 85.5857 110.258 87.2002C111.458 88.2277 112.75 89.1508 114.104 89.9848C115.071 90.1763 116.049 90.3077 116.997 90.4157C119.698 90.7228 122.413 90.608 125.099 90.2492C130.907 89.4742 155.471 82.7081 165.826 85.3383C167.983 85.8862 169 87.821 170.142 89.6378C171.132 91.2182 172.393 92.5263 173.904 93.6034L174.073 93.7221C177.029 95.7686 182.972 102.243 185.47 108.021C188.696 115.481 191.794 137.837 190.367 138.029C186.637 138.534 184.571 140.498 181.532 142.604C181.331 142.742 181.448 143.115 181.707 143.02C183.713 142.297 185.882 141.87 187.986 141.519C189.888 141.201 191.891 141.143 193.728 141.824C196.546 142.868 197.921 145.231 198.486 147.894C198.707 148.936 198.804 150.024 198.816 151.1L198.818 151.412C198.816 154.806 198.183 158.568 195.719 161.071C194.672 162.136 193.252 162.853 191.765 163.052C190.138 163.27 189.133 162.535 187.638 162.153C185.917 161.714 184.574 162.848 184.734 164.326C184.37 164.644 184.017 164.98 183.667 165.322L183.666 165.323L183.664 165.325C183.434 165.428 183.216 165.566 183.018 165.732C182.694 166.008 182.421 166.309 182.203 166.634C181.718 166.728 181.253 166.998 180.872 167.492C180.085 168.505 179.359 169.53 178.685 170.574C177.477 171.857 176.274 173.143 175.089 174.449C173.662 176.019 172.274 177.624 170.876 179.22L170.176 180.017C169.421 180.875 168.67 181.734 167.918 182.595L167.693 182.848C166.937 183.695 166.357 184.32 166.276 185.539C166.219 186.444 167.192 187.058 167.998 186.851C169.241 186.531 169.818 185.554 170.563 184.586L171.688 183.142L172.747 181.782C173.273 181.105 173.803 180.431 174.331 179.756C174.489 180.999 175.804 182.001 177.003 182.055L177.283 182.066C180.1 182.159 183.523 181.762 185.667 179.776C186.631 180.749 187.831 181.515 189.309 181.975C192.666 183.019 196.098 181.168 197.456 178.353C200.087 179.48 203.06 179.707 205.904 178.878C207.544 178.397 208.112 176.352 206.969 175.101L206.917 175.046L206.904 175.031C207.14 174.724 207.27 174.349 207.29 173.94C207.316 173.443 206.954 172.917 207.029 172.453C207.313 170.686 210.196 171.995 211.112 172.378C211.287 172.451 211.451 172.486 211.604 172.491C213.02 172.904 214.561 171.043 213.819 169.507C212.157 166.074 210.536 162.615 208.854 159.188C209.067 159.26 209.285 159.326 209.5 159.381C212.522 160.156 216.186 158.669 215.489 155.026C215.328 154.171 214.553 153.586 213.784 153.322C212.286 152.805 211.161 153.178 210.008 152.696C208.708 152.156 207.35 151.166 206.208 150.233C204.989 149.24 203.935 148.124 203.003 146.912C202.63 145.153 201.984 143.471 200.951 142.025C200.888 141.938 200.825 141.852 200.759 141.769C207.384 140.189 206.516 133.672 209.439 127.897L209.686 127.418C211.671 123.555 213.402 119.2 212.401 114.801C212.223 114.023 211.965 113.28 211.632 112.585C212.163 112.651 212.697 112.711 213.228 112.772C214.447 112.909 215.687 111.336 215.202 110.18C214.947 109.574 214.665 108.989 214.361 108.42C213.517 106.853 212.482 105.43 211.262 104.144C213.311 104.089 215.363 104.089 217.389 103.854C219.303 103.633 221.315 102.585 221.256 100.378C221.196 98.2737 219.35 96.6807 217.638 95.654C215.954 93.4127 213.817 91.55 211.399 90.1657C211.878 90.0582 212.362 89.9785 212.854 89.9295L213.101 89.9076C214.482 89.7986 215.721 89.4197 216.973 88.8428C218.092 88.3262 218.075 86.759 217.343 85.9697C214.977 83.4118 211.432 84.2448 208.674 85.7106C208.866 85.4668 209.077 85.2321 209.306 85.0075L209.446 84.8739C210.801 83.6119 208.767 81.5867 207.416 82.8444C206.99 83.2419 206.607 83.6739 206.267 84.1317L206.234 84.0639C204.45 80.4441 201.84 77.2041 198.753 74.6079L198.027 74.0045C192.459 69.3528 190.741 67.1481 183.337 67.833C183.652 66.4878 183.621 64.9745 183.55 63.7301L183.54 63.5622C183.256 58.8838 181.532 53.284 176.969 51.183C175.784 50.6406 174.441 51.5275 174.756 52.8851C174.977 53.8466 175.247 54.7823 175.583 55.6921C174.587 54.6445 173.519 53.6658 172.389 52.7645C167.78 49.0907 161.622 45.9306 155.564 46.9639C152.235 47.535 149.623 49.6245 146.837 51.3696C144.036 53.1262 140.908 54.168 137.628 54.544C133.045 55.0722 128.445 54.5412 123.913 53.7031C120.8 52.3455 117.778 50.7554 114.828 49.0419C113.014 47.9885 111.249 46.8376 109.582 45.5661ZM190.95 147.179C189.98 146.93 188.892 146.933 187.919 147.176C185.408 147.808 183.073 149.909 182.926 152.558C182.86 153.755 183.824 154.9 184.944 155.207C186.212 155.557 187.302 154.937 188.043 153.944C188.838 152.882 189.036 151.731 190.009 150.767L190.233 150.549C191.06 149.758 192.31 148.735 193.458 148.919C193.627 148.945 193.754 148.715 193.581 148.623C192.646 148.112 192.032 147.455 190.95 147.179ZM177.907 134.703C177.464 134.341 176.879 134.765 177.087 135.285L177.104 135.323C177.629 136.431 177.012 137.731 176.375 138.658C175.827 139.459 176.863 140.219 177.591 139.875C179.64 138.902 179.534 136.023 177.907 134.703ZM170.417 101.417C170.454 101.147 170.096 101.035 170.004 101.302C168.474 105.742 168.035 109.675 168.285 114.37L168.308 114.787C168.579 119.31 169.371 124.097 172.107 127.811C172.742 128.669 174.039 128.164 173.829 127.085C172.988 122.765 171.373 118.664 170.744 114.293C170.087 109.723 169.792 105.989 170.417 101.417ZM184.703 117.556C184.479 116.371 182.656 115.151 181.735 116.342C181.425 116.747 181.79 117.243 182.163 117.393C182.513 117.53 182.826 117.341 183.17 117.41C183.449 117.466 183.652 117.64 183.788 117.877L183.816 117.929C184.086 118.446 184.797 118.061 184.703 117.556ZM185.449 108.113C184.794 106.902 183.288 106.13 181.999 106.885C181.575 107.134 181.741 107.861 182.258 107.838L182.564 107.825C183.482 107.792 184.401 107.81 185.173 108.392C185.345 108.521 185.535 108.277 185.449 108.113ZM183.148 75.0349C186.818 73.3845 190.468 74.8745 193.465 77.1982C193.713 77.3905 193.833 77.6149 193.86 77.8405C191.859 77.0612 189.729 76.5504 187.692 76.1287C186.027 75.7837 184.347 75.551 182.664 75.4591C182.758 75.2901 182.913 75.1408 183.148 75.0349Z" fill="black"/>
<path fill-rule="evenodd" clip-rule="evenodd" d="M131.552 174.199C133.481 173.412 135.202 172.099 136.461 170.422C136.898 169.839 137.012 169.223 136.92 168.66C136.817 168.027 136.442 167.453 135.931 167.068C135.419 166.682 134.778 166.492 134.158 166.589C133.62 166.673 133.084 166.968 132.66 167.579L132.571 167.702C131.823 168.714 130.848 169.545 129.737 170.08C128.667 170.596 127.469 170.837 126.23 170.697C123.87 170.43 122.243 169.154 120.514 167.42C120.3 167.201 120.086 166.975 119.87 166.746C119.734 166.538 119.545 166.405 119.336 166.334C119.103 166.257 118.839 166.261 118.598 166.345C118.366 166.426 118.158 166.58 118.018 166.785C117.886 166.98 117.81 167.22 117.835 167.497C117.993 169.293 118.932 170.897 120.266 172.156C121.748 173.554 123.711 174.521 125.56 174.86C127.597 175.234 129.673 174.966 131.552 174.199ZM124.599 146.485C122.432 147.802 119.13 150.874 121.462 154.141C124.206 157.02 128.157 153.718 130.103 152.225C131.909 151.068 133.937 154.044 132.262 155.396C118.194 165.813 112.484 146.83 123.503 144.936C124.716 144.727 125.167 146.077 124.599 146.485ZM149.81 134.367C149.571 131.394 145.044 130.719 144.594 133.661C144.191 136.296 144.666 138.716 145.852 141.088C146.986 143.355 149.836 142.297 150.051 140.234C150.34 137.467 149.959 136.216 149.81 134.367ZM115.355 133.051C114.724 132.224 113.813 131.66 112.721 131.979C109.311 132.976 110.316 137.819 111.514 140.176C112.165 141.456 114.268 141.781 115.219 140.653C116.769 138.815 117.511 135.145 115.541 133.334C115.487 133.241 115.428 133.146 115.355 133.051ZM145.9 121.36L145.361 121.266C143.695 120.978 141.622 120.701 140.443 122.041C139.818 122.752 139.603 124.072 140.443 124.753C141.922 125.95 143.557 125.486 145.328 125.587C146.788 125.671 148.192 125.912 149.598 126.315C152.684 127.197 155.198 128.807 157.833 130.575C158.179 130.807 158.532 130.364 158.367 130.041C156.846 127.061 153.898 124.613 150.945 123.121C149.369 122.324 147.644 121.663 145.9 121.36ZM118.464 120.025L118.052 120.11C113.564 121.048 107.734 122.922 105.609 127.33C105.528 127.954 105.614 128.087 105.683 128.175L105.707 128.204C105.764 128.278 105.81 128.381 106.08 128.466C106.155 128.448 106.23 128.429 106.307 128.409C107.281 128.154 108.052 127.802 108.798 127.437L109.607 127.038C110.545 126.578 111.492 126.135 112.496 125.807C114.637 125.109 116.84 124.617 119.076 124.354C119.561 124.297 120.028 124.133 120.396 123.853C120.746 123.587 121.013 123.218 121.135 122.728C121.293 122.094 121.247 121.614 120.907 121.042C120.651 120.612 120.285 120.315 119.865 120.144C119.437 119.969 118.949 119.928 118.464 120.025Z" fill="black"/>
</svg>
