<svg width="333" height="351" viewBox="0 0 333 351" fill="none" xmlns="http://www.w3.org/2000/svg">
<path fill-rule="evenodd" clip-rule="evenodd" d="M8.07375 180.64C12.7186 181.096 17.3634 181.552 22.0082 182.008C44.2535 183.708 66.4899 187.259 88.5649 189.39C89.1145 188.495 90.1903 188.643 90.8435 189.265C93.0462 189.072 95.515 187.387 97.5103 189.139C97.5751 189.13 97.6399 189.119 97.7054 189.113C101.258 182.292 103.714 175.016 106.097 167.73C107.619 163.251 109.665 158.915 113.448 155.908C119.902 151.425 134.692 142.336 142.272 142.718C142.397 141.36 143.03 139.961 144.069 139.057C141.779 135.152 150.933 132.605 151.579 133.057C151.165 120.012 157.299 108.684 170.824 106.086C182.941 103.56 200.175 103.136 206.692 115.803C207.408 115.723 214.731 115.685 215.439 115.764C216.541 114.368 228.638 127.594 223.68 132.198C268.006 151.814 293.211 149.473 305.48 204.62C307.138 209.8 307.259 215.469 309.01 220.534C315.242 235.09 320.296 250.59 321.554 266.428C324.591 267.206 324.941 272.565 321.422 273.34C320.078 273.637 318.954 274.041 317.974 274.809C318.74 287.788 315.602 317.437 313.625 317.346C309.594 330.181 291.612 333.803 278.881 329.293C281.076 333.423 278.881 336.02 278.881 338.227C233.073 339.961 182.986 338.962 137.191 341.34C131.333 341.257 125.171 342.779 119.393 341.903C115.869 341.058 115.864 335.515 119.438 334.83L103.82 331.437C104.169 331.305 97.3825 326.789 92.2532 318.35C87.4788 308.91 90.7282 297.515 88.5649 287.246C71.6684 285.864 54.4925 285.273 37.781 282.41C35.5024 289.231 25.6387 281.074 22.5034 277.793C22.5073 277.788 22.5112 277.783 22.5152 277.778C20.9978 277.362 19.781 275.94 19.7403 274.255C18.6762 272.734 18.4528 270.591 19.4733 269.121C14.7963 242.122 7.66609 214.557 5.0889 187.304C4.17784 187.103 3.31986 186.703 2.59245 186.087L2.65139 186.028C1.41896 184.654 1.17932 182.281 3.23391 181.113C4.89126 180.17 6.27509 180.463 8.07375 180.64Z" fill="white"/>
<path fill-rule="evenodd" clip-rule="evenodd" d="M205.847 112.861C204.467 109.392 200.48 108.855 201 112.5C201.311 114.683 201.828 118.875 202.902 120.789C203.776 122.347 204.773 123.867 206.125 125.035C203.718 127.281 201.22 129.446 198.658 131.501C195.863 133.743 192.923 135.81 189.885 137.71C187.22 139.376 184.435 140.852 181.924 142.753C179.589 144.521 177.461 146.646 176.379 149.421C175.226 152.376 175.727 155.427 176.576 158.38L176.674 158.714C177.541 161.639 179.043 165.166 176.961 167.922C175.9 169.325 174.359 170.319 173.029 171.441C171.846 172.438 170.736 173.522 169.717 174.687C167.497 177.225 165.692 180.082 164.552 183.265L164.45 183.554C163.474 186.372 162.76 189.824 164.08 192.591C164.458 193.384 165.679 193.126 165.892 192.354C166.371 190.605 166.346 188.772 166.748 186.998C167.166 185.153 167.862 183.402 168.772 181.745C170.531 178.539 172.913 175.801 175.728 173.486L176.57 172.801C178.766 170.998 180.783 169.086 181.229 166.103C181.706 162.911 180.427 159.87 179.605 156.849C179.033 154.744 178.845 152.725 179.465 150.823C180.221 152.058 181.253 153.23 182.069 154.275C183.694 156.358 185.335 158.429 186.971 160.503C188.649 162.63 190.286 164.79 191.844 167.006C192.541 167.998 193.231 168.995 193.918 169.994C194.435 170.744 195.156 171.494 195.719 172.259C195.582 172.668 195.593 173.14 195.841 173.475C198.828 177.514 203.079 169.088 204.187 166.959C206.445 162.623 208.125 158.018 210.39 153.683C212.737 149.19 215.409 144.816 218.388 140.714C220.19 138.233 222.209 135.903 223.857 133.343C227.74 136.865 232.85 139.226 237.543 141.367C242.699 143.719 248.056 145.641 253.343 147.681L254.905 148.288C264.014 151.845 273.346 155.752 280.918 162.069C289.815 169.493 295.079 179.839 298.997 190.554C303.508 202.888 307.24 215.556 310.719 228.215C312.5 234.692 314.189 241.199 315.777 247.726C317.176 253.477 318.336 259.285 319.956 264.976C316.671 264.86 312.924 266.132 310.119 266.5C297.336 268.174 284.725 270.842 272.656 275.462C271.165 276.032 270.734 277.522 271.058 278.729C270.198 278.486 269.339 278.24 268.48 277.999C269.422 276.555 268.972 273.974 268.898 272.374L268.893 272.264C268.817 270.131 268.586 267.997 268.436 265.868C268.151 261.811 267.779 257.783 267.285 253.748L267.158 252.74C266.598 248.351 266.184 243.936 265.573 239.554L265.501 239.053C265.794 237.932 266.135 236.824 266.493 235.722C267.448 232.785 268.795 230.021 269.975 227.176C270.114 226.842 269.637 226.649 269.415 226.85C267.415 228.649 265.827 230.932 264.552 233.319C264.53 233.206 264.51 233.093 264.487 232.981L264.341 232.264C263.982 230.516 263.546 228.677 262.474 227.259C262.36 227.108 262.134 227.077 262.026 227.259C261 228.995 260.885 231.195 260.727 233.171C260.549 235.407 260.526 237.67 260.558 239.912C260.619 244.293 260.928 248.687 261.174 253.06C261.415 257.358 261.889 261.602 262.499 265.858L262.616 266.656C262.914 268.682 263.158 270.732 263.552 272.744L263.663 273.292C263.874 274.29 264.003 275.696 264.422 276.865C253.643 273.857 242.847 270.918 232.031 268.031C224.214 265.944 216.388 263.888 208.566 261.819C208.153 261.074 207.639 260.379 206.998 259.758C204.884 257.711 202.084 256.797 199.515 258.373C199.306 258.502 199.288 258.829 199.515 258.953C200.007 259.222 200.5 259.498 200.984 259.786L196.287 258.513C192.777 257.561 189.224 256.372 185.631 255.708C179.012 252.441 171.894 250.076 164.922 247.739L164.1 247.461C160.53 246.243 156.838 244.88 153.149 244.205C150.449 243.711 147.28 244.307 146.194 247.074C144.819 247.981 143.526 249.046 142.278 250.093C141.376 250.85 140.511 251.655 139.631 252.438L139.469 252.581C138.75 253.205 138.18 253.623 138.004 254.616C137.913 255.13 138.239 255.823 138.871 255.755C140.807 255.548 142.381 253.303 143.694 251.963C144.708 250.927 145.73 249.856 146.656 248.717C147.196 249.011 147.935 248.958 148.279 248.307C150.06 244.933 154.94 247.271 157.64 248.071L161.507 249.217C163.441 249.79 165.374 250.366 167.303 250.953C172.607 252.564 177.884 254.367 183.235 255.846C182.757 256.373 182.823 257.309 183.732 257.666C187.921 259.31 192.517 260.16 196.869 261.289C199.616 262.002 202.362 262.719 205.107 263.44C205.578 264.203 205.917 265.066 206.059 266.07C206.583 269.764 205.573 274.026 204.588 277.598L204.44 278.131C203.631 281.003 202.441 284.524 199.964 286.337C199.359 286.78 198.589 287.088 197.813 287.157C192.964 284.66 188.116 282.164 183.264 279.672C182.365 279.21 181.535 279.835 181.333 280.578C179.623 280.298 177.916 279.855 176.361 279.327C173.749 278.44 171.71 276.747 169.261 275.577C164.523 273.313 159.685 276.094 155.442 278.208L154.465 278.689C152.562 279.612 148.605 281.386 147.692 278.861C146.809 276.418 149.6 273.807 151.403 272.707C153.552 271.396 156.054 270.694 158.482 270.11C159.869 269.776 161.273 269.504 162.685 269.305C164.286 269.079 165.941 269.113 167.483 268.594C168.249 268.336 168.367 267.118 167.483 266.917C165.109 266.377 162.276 266.966 159.798 267.569L158.503 267.888C156.008 268.501 153.488 269.27 151.214 270.492C149.561 271.381 147.816 272.731 146.677 274.384C145.687 273.464 144.455 273.496 143.172 273.837L142.475 274.03C141.325 274.349 140.393 274.569 139.274 274.348C139.124 273.533 138.972 272.718 138.81 271.904C137.215 263.894 135.466 255.915 133.536 247.979C130.207 234.29 126.355 220.751 122.013 207.351L121.577 206.011C120.575 202.946 119.769 199.607 118.155 196.791C116.628 194.128 114.181 192.595 111.274 191.783C107.975 190.861 104.508 190.379 101.143 189.756C100.392 189.618 99.6394 189.486 98.888 189.349C99.523 188.202 99.997 186.901 100.424 185.901L100.499 185.728C101.416 183.636 102.24 181.507 103.036 179.366L103.631 177.756C105.067 173.88 106.55 170.068 108.57 166.443C110.696 162.628 113.517 159.509 117.032 156.927C124.201 151.664 132.841 148.979 139.794 143.353C140.079 143.123 139.714 142.729 139.425 142.875C134.73 145.235 129.662 146.839 124.779 148.76L123.815 149.141C119.956 150.671 116.036 152.337 112.696 154.816C108.971 157.579 106.038 161.011 103.833 165.092C101.66 169.114 100.27 173.617 98.7371 177.914L98.3271 179.059C97.7087 180.775 97.0701 182.487 96.3382 184.158C95.7572 185.484 94.6731 186.998 94.1803 188.513C92.832 188.279 91.484 188.045 90.1344 187.819C60.9025 182.937 31.3439 180.068 1.7197 179.229C0.560723 179.196 -0.0387531 180.302 0.132019 181.313C2.97497 198.131 5.5014 215.006 8.27344 231.836C9.48348 239.181 10.7176 246.521 11.9807 253.858C12.6205 257.574 13.3602 261.277 13.9662 264.999C14.4554 268.005 14.8106 271.035 15.6505 273.971C16.4038 276.604 17.5599 279.143 19.4585 281.152C21.5052 283.317 24.3618 284.365 27.2373 284.86C34.5369 286.117 42.0242 286.63 49.383 287.468L88.562 291.927C87.9895 297.133 87.9467 302.258 88.2094 307.524L88.3591 310.4C88.4815 312.712 88.6278 315.028 88.9598 317.317C89.3762 320.188 90.689 322.619 92.6228 324.764C94.3985 326.733 96.5558 328.413 98.6542 330.023C100.832 331.695 103.083 333.309 105.644 334.343L105.976 334.475C108.223 335.352 112.437 336.711 115.508 336.215C115.107 338.227 114.33 340.39 115.019 342.381C115.338 343.305 116.547 343.766 117.287 342.98C118.754 341.421 118.868 339.362 119.215 337.328C119.577 335.211 119.888 333.087 120.165 330.958C120.701 326.842 121.117 322.687 121.245 318.536C121.375 314.272 121.325 310.003 121.095 305.744C120.977 303.557 120.831 301.371 120.553 299.198C120.435 298.271 120.314 297.344 120.176 296.419C120.125 296.082 120.069 295.747 120.009 295.412L123.526 295.809C128.918 296.411 134.312 296.955 139.743 297.039C140.386 297.049 140.88 296.756 141.204 296.329C141.548 296.891 142.148 297.292 143.007 297.289C150.59 297.261 157.652 294.78 164.549 291.857C168.026 290.383 171.449 288.787 174.93 287.325C178.18 285.961 181.655 284.988 184.826 283.451L193.16 287.824C193.221 288.039 193.299 288.243 193.383 288.413C193.925 289.521 194.995 290.122 196.088 290.575C197.136 291.01 198.222 291.145 199.281 291.035C205.601 294.349 211.923 297.659 218.249 300.961L224.576 304.261C237.183 310.827 249.739 317.501 262.425 323.914L263.359 324.384C267.741 326.582 272.446 328.81 277.309 330.472C277.395 331.704 277.341 332.901 277.238 334.205L277.213 334.488C277.068 336.029 276.757 337.958 277.992 339.055C278.634 339.625 279.782 339.627 280.219 338.767C281.011 337.208 280.3 334.751 280.049 333.057C279.96 332.455 279.851 331.835 279.69 331.235C285.265 332.895 291.008 333.7 296.681 332.768C302.204 331.861 306.482 328.38 309.931 324.122C313.57 319.629 316.157 314.393 317.544 308.78C319.124 302.393 319.227 295.797 319.19 289.255C319.15 282.288 318.893 275.287 318.046 268.367C318.974 268.149 320.003 267.96 320.941 268.025C321.405 268.769 322.306 269.082 323.12 268.985C324.891 270.939 320.4 272.935 318.965 273.435C318.466 273.608 318.52 274.418 319.095 274.394L319.457 274.376C321.674 274.258 323.965 273.88 325.269 271.818C326.314 270.166 326 268.208 324.754 266.861C323.932 259.079 321.965 251.502 320.135 243.912C318.339 236.462 316.341 229.059 314.224 221.694L313.275 218.398C309.941 206.85 306.457 195.208 301.858 184.119C299.562 178.582 296.917 173.146 293.331 168.318C289.989 163.818 286.043 159.966 281.508 156.677C273.052 150.545 263.13 146.839 253.381 143.309L252.945 143.151C247.893 141.323 242.853 139.473 237.859 137.492C233.442 135.741 229.211 133.52 224.814 131.742C224.957 131.482 225.095 131.22 225.228 130.955L225.309 131.023C225.323 131.034 225.337 131.045 225.352 131.055C225.794 131.361 226.445 131.211 226.809 130.867C227.838 129.896 227.49 128.818 226.803 127.811L226.714 127.683C225.874 126.506 225.125 125.261 224.35 124.042L223.864 123.279C222.563 121.241 221.196 119.19 219.461 117.506C218.658 116.726 217.778 116.142 216.846 115.707C216.926 115.539 216.227 115.194 216.029 115.367C213.076 114.286 209.679 114.513 206.46 114.811M90.4578 292.142L94.5628 292.609C99.079 293.123 103.597 293.62 108.115 294.112L117.93 295.179C117.955 295.739 118.023 296.286 118.035 296.709C118.099 298.888 118.147 301.069 118.192 303.249C118.283 307.618 118.184 311.992 117.896 316.353C117.617 320.579 117.25 324.805 116.68 329.002L116.563 329.841L116.495 330.283C116.03 330.328 115.573 330.549 115.192 331.004C114.362 331.995 111.356 331.031 110.182 330.613C108.252 329.926 106.434 328.765 104.756 327.601C103.118 326.464 101.643 325.138 100.226 323.742L99.0658 322.594C97.9121 321.447 96.7572 320.226 96.0503 318.783C95.0917 316.826 94.9678 314.425 94.6867 312.294C94.3406 309.673 93.9285 307.053 93.493 304.445M209.626 264.631L210.052 264.743C225.519 268.855 240.963 273.088 256.478 277.018C264.156 278.963 271.87 280.767 279.558 282.675L280.802 282.986C286.867 284.519 293.004 286.365 297.648 290.765C297.82 290.927 298.069 290.678 297.907 290.506C292.902 285.176 285.784 282.92 278.949 280.964C277.685 280.602 276.42 280.249 275.157 279.889C284.452 276.575 293.894 273.69 303.554 271.634C306.041 271.104 308.557 270.715 311.043 270.183C312.776 269.812 314.469 269.276 316.184 268.831L317.533 268.491L317.551 272.757C317.574 278.798 317.563 284.834 317.255 290.875L317.197 291.994C316.837 298.716 316.276 305.577 313.891 311.915C311.954 317.066 308.865 321.918 304.826 325.67C302.782 327.568 300.585 329.046 297.869 329.775C295.347 330.452 292.705 330.532 290.112 330.351C277.677 329.483 266.608 322.725 255.806 317.13C238.138 307.979 220.468 298.832 202.782 289.716C203.26 289.389 203.71 289.012 204.119 288.589C206.491 286.138 207.742 282.784 208.564 279.535C209.438 276.078 209.961 272.372 210.022 268.802M187.122 293.248C186.966 293.165 186.785 293.27 186.778 293.446C186.723 294.797 187.47 296.13 188.027 297.347L188.086 297.477C188.764 298.985 189.506 300.473 190.273 301.938C191.807 304.863 193.401 307.758 195.064 310.611C198.409 316.352 202.127 321.85 206.521 326.849C207.513 327.978 209.145 326.53 208.508 325.314C205.438 319.454 201.858 313.92 198.173 308.435C196.329 305.688 194.485 302.939 192.622 300.205C191.845 299.065 191.058 297.928 190.25 296.808L189.762 296.139M3.67854 182.585C19.1999 183.054 34.7031 184.067 50.1507 185.654C64.517 187.129 78.8306 189.094 93.0636 191.543C96.0364 192.054 99.0056 192.587 101.971 193.14L103.75 193.475C106.716 194.037 110.339 194.269 112.98 195.854C115.764 197.525 116.516 201.018 117.442 203.897C118.531 207.284 119.593 210.681 120.626 214.086C124.727 227.604 128.473 241.24 131.815 254.965C133.474 261.778 134.946 268.629 136.497 275.467C137.875 281.543 139.395 287.549 140.983 293.564C140.787 293.411 140.547 293.296 140.258 293.234C132.37 291.555 124.319 290.825 116.314 289.898L115.539 289.808C107.258 288.833 98.9765 287.866 90.6903 286.934L35.8289 280.762C32.5933 280.398 29.1272 280.349 25.9785 279.48C20.6251 278.003 19.3703 272.016 18.4721 267.247L18.445 267.103C15.737 252.696 13.5814 238.164 11.0559 223.721M139.706 276.816C141.836 276.676 144.752 274.724 146.368 274.864C145.519 276.288 145.136 277.912 145.625 279.647C146.986 284.473 153.139 281.976 156.103 280.502C158.533 279.292 160.88 277.812 163.57 277.246C166.618 276.605 168.683 277.817 171.258 279.215C173.373 280.362 175.676 281.187 178.045 281.613C179.304 281.84 180.501 281.864 181.695 281.776C181.767 281.834 181.848 281.889 181.94 281.937L182.572 282.269C179.716 282.4 176.806 283.282 174.148 284.089C171.394 284.925 168.69 285.933 166 286.964L163.354 287.982C156.827 290.482 150.071 292.856 143.007 292.836C142.499 292.834 142.083 292.975 141.756 293.204M151.623 261.693C149.519 261.436 147.577 261.712 145.896 263.082C143.868 264.735 142.505 267.475 139.59 267.655C138.74 267.708 138.543 268.903 139.388 269.153C141.558 269.796 143.314 268.621 144.793 267.096L145.787 266.057C147.248 264.544 148.595 263.374 151.074 263.465C153.729 263.562 156.389 264.175 159.026 264.487C162.014 264.841 165.002 265.142 167.999 265.402C168.138 265.414 168.162 265.195 168.032 265.163L164.675 264.327M153.655 253.088L153.308 253.053C150.252 252.756 147.457 252.744 144.729 254.389L144.205 254.705C141.745 256.202 139.067 257.964 137.528 260.386C137.276 260.783 137.692 261.249 138.114 261.148C141.071 260.438 143.233 258.268 145.719 256.643C148.51 254.82 151.393 255.121 154.575 255.404C157.656 255.678 160.736 256.055 163.787 256.569C166.653 257.051 169.529 257.813 172.425 258.056L172.424 258.05C172.755 258.049 172.944 257.552 172.606 257.384C169.668 255.916 166.264 255.221 163.068 254.55M60.831 222.875C61.1264 221.462 59.3887 220.807 58.5833 221.928L58.412 222.164C56.6721 224.549 54.1557 227.541 54.2838 230.574C52.7543 230.608 51.1686 231.537 50.5727 232.918C50.2971 233.557 50.2038 234.314 50.2646 235.097C48.8744 235.205 47.3582 236.118 46.5083 237.007C45.0995 238.481 44.9882 240.564 45.9989 242.286C48.2025 246.04 53.0163 247.405 57.0801 247.71L57.225 247.72C61.4224 248.011 67.4706 247.932 70.3487 244.33C73.125 240.855 70.0566 238.041 66.9102 236.513C67.7292 235.765 68.1534 234.692 67.7546 233.561C67.0543 231.572 64.5818 230.804 63.1847 229.422C61.4816 227.736 60.3562 225.424 60.805 223.007M58.5241 225.931C58.987 227.943 60.1242 229.784 61.708 231.242C62.3137 231.8 62.9763 232.297 63.6802 232.723L63.7648 232.772C64.3895 233.123 65.925 233.781 65.8068 234.568C65.6852 235.377 63.1835 236.643 62.5017 236.643C62.3465 236.643 62.2587 236.886 62.4171 236.956C63.6528 237.502 64.7321 237.736 65.9405 237.159C66.7479 237.984 67.5321 238.837 68.3089 239.683C69.6825 241.179 69.2125 242.76 67.5894 243.874C64.9813 245.664 61.0168 245.621 57.9738 245.49C54.9109 245.36 51.637 244.676 49.2446 242.635L49.1404 242.544C47.8401 241.388 46.6525 239.427 48.6438 238.313C49.4235 237.877 50.2659 237.902 51.0063 237.69C51.6991 239.049 52.823 240.137 54.1943 240.347C55.3027 240.517 56.0659 239.123 55.0577 238.456L54.8312 238.316C53.5653 237.507 52.485 236.262 52.5136 234.641C52.5332 233.515 54.1043 232.094 55.1279 233.151L55.1747 233.202C56.0312 234.168 57.5398 232.951 56.9765 231.881L56.9495 231.832M258.285 169.968C258.289 169.726 257.949 169.635 257.83 169.845C255.842 173.344 254.803 177.633 253.744 181.488C252.634 185.526 251.739 189.606 250.935 193.715C249.305 202.036 248.437 210.309 248.378 218.79C248.37 220.001 250.342 220.323 250.535 219.082C251.815 210.833 253.042 202.575 254.333 194.328C254.982 190.18 255.738 186.048 256.461 181.912M238.603 176.062C238.749 175.58 238.047 175.418 237.868 175.86C233.878 185.657 232.527 196.761 235.088 207.098C235.48 208.679 237.795 207.994 237.499 206.432M187.138 167.357C187.158 166.995 186.689 166.938 186.513 167.187C184.622 169.852 183.838 173.421 180.521 174.798C178.865 175.485 177.001 175.365 175.538 176.527C174.56 177.304 173.81 178.53 174.544 179.706C174.781 180.086 175.444 180.277 175.765 179.864C176.234 179.262 176.483 178.541 177.12 178.09C178.019 177.454 179.231 177.415 180.261 177.116C181.594 176.729 182.769 176.053 183.731 175.048M155.554 122.911C155.359 122.812 155.172 122.875 155.047 123.044C154.869 123.284 154.891 123.518 155.109 123.682C154.818 124.278 154.474 125.769 154.425 125.986C154.226 126.865 154.014 127.74 153.793 128.614C153.346 130.377 152.954 132.153 152.507 133.917C152.033 135.786 151.468 137.635 150.839 139.458C150.798 139.576 150.754 139.696 150.707 139.819L150.635 140.003L150.618 139.975C150.49 139.773 150.224 139.914 150.255 140.128C150.285 140.322 150.324 140.516 150.357 140.711L150.291 140.885C149.88 141.992 149.598 143.159 150.353 144.136C150.635 144.501 150.946 144.718 151.333 144.782C151.954 146.829 152.732 148.838 153.566 150.767L153.81 151.33C155.037 154.145 156.345 156.923 158.297 159.319C160.429 161.935 163.361 163.722 165.218 166.589C166.082 167.922 166.684 169.324 167.171 170.83L167.355 171.402C167.701 172.467 168.101 173.5 169.1 174.124C169.418 174.324 169.896 174.26 170.153 173.988C172.201 171.821 170.057 167.773 168.822 165.675C167.105 162.757 164.62 160.89 162.132 158.688C159.45 156.315 157.74 153.14 156.085 150.013C155.071 148.097 154.093 146.139 153.063 144.215C154.139 143.263 154.484 141.373 154.848 140.059L154.881 139.941C155.484 137.837 155.963 135.678 156.265 133.51C156.557 131.426 156.678 129.371 156.601 127.274L156.579 126.74M151.552 132.833C151.79 132.507 151.396 132.138 151.07 132.206C149.086 132.616 147.147 133.817 145.367 134.789L145.177 134.892C143.755 135.659 142.325 136.598 141.579 138.087C140.768 139.706 140.835 141.57 140.945 143.329L140.956 143.494C141.091 145.604 141.113 147.796 141.559 149.867C141.788 150.927 142.748 151.226 143.568 150.975C144.545 154.06 147.288 156.333 149.292 158.767C151.846 161.87 151.366 166.059 151.099 169.797C150.991 171.31 152.872 171.74 153.841 170.933L156.074 169.077C156.446 168.767 156.817 168.457 157.188 168.146C157.505 167.879 157.819 167.609 158.131 167.337L158.597 166.926C158.804 166.741 159.715 165.723 159.981 165.68C160.626 165.578 162.159 167.279 162.684 167.813L162.75 167.879C163.738 168.848 164.63 169.89 165.461 170.996C165.614 171.199 165.913 171.03 165.804 170.795C165.059 169.2 164.193 167.674 163.165 166.246L162.957 165.961C162.273 165.039 161.355 163.411 160.148 163.139C158.673 162.806 157.201 164.285 156.128 165.106L156.06 165.158C155.55 165.541 155.046 165.931 154.542 166.323C154.595 163.54 154.243 160.729 152.807 158.331C151.795 156.64 150.278 155.387 148.979 153.934C147.534 152.316 146.78 150.327 145.471 148.642C145.303 148.425 145.07 148.308 144.819 148.271C144.769 146.916 144.569 145.548 144.415 144.208L144.37 143.806C144.215 142.35 143.846 140.572 144.559 139.208C145.232 137.92 146.777 137.01 147.921 136.136L148.855 135.412M215.93 117.436C216.527 117.781 217.085 118.211 217.592 118.748C219.186 120.44 220.326 122.546 221.435 124.571C222.032 125.662 222.608 126.764 223.21 127.853C223.472 128.326 223.741 128.794 224.013 129.262C224.139 129.477 224.513 129.906 224.699 130.17C224.493 130.458 224.28 130.743 224.062 131.024C223.979 131.131 218.261 137.363 216.267 139.802C213.215 143.538 210.486 147.484 208.154 151.708C205.87 155.844 204.131 160.224 202.015 164.44C200.956 166.551 199.773 168.647 198.265 170.474C198.207 170.545 198.146 170.612 198.086 170.683C197.511 169.128 196.036 167.463 195.312 166.507L195.245 166.416C193.602 164.202 191.868 162.054 190.096 159.942C188.477 158.014 186.817 156.127 185.117 154.272L184.478 153.578C183.294 152.298 181.789 150.383 180.056 149.468C180.241 149.137 180.456 148.81 180.704 148.486C182.328 146.363 184.624 144.821 186.89 143.431L188.359 142.537C193.898 139.16 199.351 135.627 204.159 131.239C206.703 128.918 209.212 126.486 211.351 123.779L212.107 122.821M206.688 115.764C209.282 115.982 212.083 115.93 214.48 116.775C212.349 118.791 210.323 120.967 208.242 123.016C208.057 121.63 207.679 120.261 207.358 118.909" fill="black"/>
<path d="M119.543 47.1201C118.066 54.0157 120.939 57.1351 120.939 75.6054C120.939 84.8816 121.842 95.4713 123.648 105.65C125.536 116.158 130.79 126.091 139.573 133.479C152.872 144.561 166.827 145.054 183.327 132.166C185.626 130.36 193.671 124.285 195.723 122.233C200.32 117.718 200.731 106.061 203.686 101.546C205.738 98.4265 206.969 103.434 211.649 98.2623C218.134 91.2026 225.932 77.001 222.074 51.8814C215.835 11.1646 183.574 6.40335 159.685 10.9183C135.797 15.3512 123.484 28.9782 119.543 47.1201Z" fill="white"/>
<path d="M207.709 105.404C210.582 100.725 214.604 96.7847 217.231 91.9413C225.194 77.2472 226.836 59.3515 222.567 43.2618C213.455 8.78391 179.962 2.87341 149.589 12.2317C133.171 17.3213 121.104 29.7169 117.738 46.7917C116.506 52.9485 119.133 58.859 119.544 64.8516C119.954 68.4635 120.118 72.0755 120.036 75.6875C119.626 86.6876 119.954 97.8519 123.238 108.441C126.604 119.031 132.104 129.539 141.216 136.352C158.373 149.158 178.649 139.8 191.947 126.255C192.358 125.845 191.783 125.188 191.291 125.516C182.589 131.755 173.313 137.666 162.641 138.815C144.007 140.949 131.036 123.546 125.536 107.785C123.156 100.971 121.924 93.8294 121.678 86.6876C121.432 79.3815 122.007 72.0755 121.76 64.7695C121.678 62.9635 121.596 61.0754 121.432 59.2694C121.186 56.3963 120.447 51.635 121.021 48.844C122.745 40.3066 126.522 32.0975 132.596 25.7766C146.798 11.0824 173.559 6.89583 192.44 13.7093C214.604 21.8363 220.433 44.0827 221.664 65.4262C222.485 78.2323 218.709 90.71 209.022 99.4936L205.164 103.516C203.604 105.158 206.395 107.374 207.709 105.404Z" fill="black"/>
<path d="M198.021 79.2993C198.021 79.2993 200.566 66.9858 212.551 68.4634C222.894 69.7769 226.506 94.5681 203.029 101.464" fill="white"/>
<path d="M204.096 90.7101C205.984 89.643 207.297 87.837 207.38 85.6205C207.297 83.9787 207.051 82.0907 207.462 80.4488C207.708 78.8891 209.35 78.4787 210.581 78.5608C211.894 78.807 212.715 80.4489 212.962 81.7623C212.962 81.8444 213.044 82.0907 213.044 82.1727C213.126 82.5832 213.783 82.5832 213.947 82.1727C215.014 78.9712 212.633 75.4413 209.186 75.8518C204.342 76.1801 203.685 81.2697 204.588 85.128C205.081 86.7698 204.424 88.2474 203.521 89.643L203.357 89.8892C202.947 90.3818 203.603 91.0385 204.096 90.7101Z" fill="black"/>
<path d="M138.425 70.5978C137.193 76.4262 134.895 81.8441 132.022 86.9337C129.477 93.1726 136.044 99.0831 141.872 98.8368C142.529 98.8368 142.611 97.9338 142.037 97.7696C138.343 96.6204 134.977 94.1577 134.402 90.3815C134.156 89.2322 134.484 88.2472 135.059 87.2621C137.768 82.1725 139.41 76.3441 138.999 70.5978C138.999 70.1873 138.425 70.1873 138.425 70.5978Z" fill="black"/>
<path d="M198.431 79.3815C200.319 74.5382 204.423 69.9411 209.924 70.0232C210.416 69.9411 211.237 70.1053 211.73 70.1053C213.125 70.1874 214.274 70.6799 215.341 71.665C220.595 76.9188 219.692 86.195 215.424 92.0234C213.946 94.0757 212.058 95.8816 209.924 97.3593C207.789 98.8369 205.409 99.9862 202.864 100.971C202.289 101.135 202.535 102.038 203.11 101.956C208.61 100.807 213.864 98.0981 217.476 93.5831C223.058 86.8517 224.207 75.6053 217.558 69.0381C216.08 67.7247 214.028 66.7396 211.976 66.7396C211.319 66.7396 210.334 66.5754 209.677 66.7396C206.229 66.9038 202.946 68.6277 200.812 71.3366C198.923 73.6352 197.856 76.4262 197.528 79.2173C197.528 79.7099 198.267 79.874 198.431 79.3815Z" fill="black"/>
<path d="M201.5 106L201 109H202.5L203 106.5L201.5 106Z" fill="black" stroke="white"/>
<path d="M206.5 100.5L203 101.5L201.5 111.5L205 112L206.5 100.5Z" fill="black"/>
<path d="M203 101.5L206.5 100.5L205 112L201.5 111.5L203 101.5ZM203 101.5L204.5 101" stroke="black"/>
<path d="M115.654 20.3574C114.174 16.9088 114.174 13.1318 116.64 9.84742C123.793 0.40484 145.908 7.54836 158.24 3.60711C176.738 -2.38688 199.675 -3.12586 213.158 19.0437C216.529 24.6271 218.173 26.1872 222.941 30.6211C227.874 35.2192 231.738 43.6765 232.067 55.2539C232.807 78.4909 214.556 98.6898 214.556 98.6898C213.651 99.9215 212.829 100.989 212.089 101.892C205.512 109.775 203.457 124.965 205.43 100.989C225.901 93.1064 222.201 70.1978 212.254 68.9662C201.731 67.6525 198.442 77.0129 197.867 79.312C190.796 74.796 193.345 65.1892 194.167 56.2392C188.659 53.776 183.973 47.8641 181.506 42.527C178.793 46.304 175.505 49.2599 171.558 49.5884C167.366 49.9989 164.899 46.4682 164.077 41.4596C158.651 48.6031 149.032 57.4709 133.905 59.1952C126.67 60.0163 120.669 56.9782 116.64 51.9696C115.572 52.1338 114.585 52.2159 113.599 52.1338C102.993 51.0664 91.1546 29.6358 115.654 20.3574Z" fill="black"/>
<path d="M166.579 78.9708C168.549 78.8887 170.027 77.2469 169.863 75.2767L169.78 72.9782C169.698 71.008 168.057 69.5304 166.086 69.6946C164.116 69.7767 162.639 71.4185 162.803 73.3887L162.885 75.6872C162.967 77.5753 164.609 79.0529 166.579 78.9708Z" fill="black"/>
<path d="M132.02 80.2023C133.826 80.1202 135.221 78.5605 135.139 76.7545L135.057 74.6202C134.975 72.8142 133.415 71.4187 131.609 71.5008C129.803 71.5828 128.408 73.1426 128.49 74.9485L128.572 77.0829C128.654 78.8889 130.214 80.2844 132.02 80.2023Z" fill="black"/>
<path d="M159.19 74.5378C161.899 72.7318 164.854 71.5005 168.138 72.1572C169.205 72.3214 170.272 72.6497 170.929 73.3885C171.175 73.7169 171.75 73.6348 171.75 73.1423C171.668 71.5005 170.272 70.4333 168.959 69.7766C166.414 68.4631 162.884 68.7094 160.586 70.4333C159.765 70.9258 156.974 73.9632 158.451 74.6199C158.78 74.7841 158.944 74.702 159.19 74.5378Z" fill="black"/>
<path d="M135.713 74.9484C135.713 71.5006 131.444 70.2692 128.817 71.5006C127.34 72.1573 126.273 73.4707 125.862 75.0305C125.698 75.523 126.437 75.9335 126.765 75.523C128.161 73.8812 130.541 73.0603 132.429 74.0454C133.004 74.3737 133.086 74.62 133.25 74.9484C133.25 76.5902 135.631 76.5081 135.713 74.9484Z" fill="black"/>
<path d="M155.251 60.993C153.527 61.5677 151.803 60.008 152.131 58.1199C152.296 57.1348 152.706 56.1497 153.527 55.4109C155.99 53.1945 166.169 51.2243 172.326 54.0974C177.744 56.7243 163.131 58.3661 155.251 60.993Z" fill="black"/>
<path d="M130.705 62.3064C132.101 62.799 133.579 61.3213 133.332 59.5974C133.25 58.6944 132.922 57.7914 132.265 57.1347C130.295 55.1646 123.564 53.6048 119.295 56.6422C115.601 59.187 124.302 59.9258 130.705 62.3064Z" fill="black"/>
<path d="M144.662 109.508C149.916 114.516 159.849 110.493 162.476 104.419C162.804 103.68 161.983 103.023 161.327 103.352C159.931 104.09 158.7 104.829 157.386 105.404C153.61 107.128 149.67 108.523 145.483 108.113C144.662 107.949 144.088 108.934 144.662 109.508Z" fill="black"/>
</svg>
